<svg width="190" height="192" viewBox="0 0 190 192" fill="none" xmlns="http://www.w3.org/2000/svg">
<g clip-path="url(#clip0_433_310)">
<path d="M152.89 67.8801C152.89 67.8801 141.63 45.2101 138.72 43.4601C135.82 41.7201 119.47 42.0701 113.29 39.6201C113.29 39.6201 105.75 48.6901 94.4498 48.6901C83.1498 48.6901 75.6098 39.6201 75.6098 39.6201C69.4298 42.0601 53.0898 41.7101 50.1798 43.4601C47.2798 45.2001 36.0098 67.8801 36.0098 67.8801C42.1798 82.5301 57.0798 85.6701 57.0798 85.6701L62.8898 76.2501L60.1698 149.5C74.3298 157.87 84.5198 158.39 94.4498 158.39C104.38 158.39 114.56 157.87 128.73 149.5L126.01 76.2501L131.82 85.6701C131.82 85.6701 146.71 82.5301 152.89 67.8801Z" stroke="#3E5C6D" stroke-width="4" stroke-miterlimit="10"/>
<path d="M94.9687 50.9101C92.1087 50.9101 89.1987 50.3601 86.2987 49.2801C83.9987 48.4201 81.7087 47.2201 79.4987 45.7201C75.7487 43.1801 73.4787 40.6301 73.3887 40.5201L76.8487 37.7001C76.8487 37.7001 78.9087 40.0001 82.2287 42.2301C85.1687 44.2101 89.7687 46.5601 94.9787 46.5601H95.0687C101.039 46.5301 106.749 43.4401 112.019 37.3701L115.499 40.1601C112.259 43.8901 108.789 46.6801 105.169 48.4701C101.919 50.0801 98.5187 50.9001 95.0587 50.9101C95.0287 50.9101 94.9987 50.9101 94.9687 50.9101Z" fill="#3E5C6D"/>
<path d="M59.5791 81.66C53.1691 81.1 47.6491 77.89 43.1891 72.1C40.5891 68.73 39.0191 65.31 38.2791 63.46L35.6191 68.5C36.5591 70.33 37.8191 72.45 39.4491 74.58C41.9791 77.89 44.9091 80.54 48.1291 82.46C50.9191 84.12 53.9291 85.22 57.1191 85.74L59.5891 81.66H59.5791Z" fill="#3E5C6D"/>
<path d="M129.469 81.7898C135.879 81.2298 141.389 78.0198 145.859 72.2298C148.459 68.8598 150.029 65.4398 150.769 63.5898L153.429 68.6298C152.489 70.4498 151.229 72.5798 149.599 74.7098C147.059 78.0198 144.139 80.6698 140.919 82.5898C138.129 84.2498 135.119 85.3498 131.929 85.8698L129.469 81.7898Z" fill="#3E5C6D"/>
<path d="M183.951 120.2C194.761 84.4501 181.381 46.6901 156.571 25.1801C141.551 12.1601 125.261 7.62008 116.111 5.84008C115.701 5.75008 115.301 5.67008 114.901 5.58008C115.441 5.69008 115.971 5.81008 116.511 5.92008C116.971 6.02008 117.431 6.13008 117.891 6.23008C126.851 8.14008 142.261 12.7701 156.571 25.1701C181.291 46.5901 194.781 84.3701 183.951 120.19V120.2ZM183.951 120.2C171.911 160.03 132.691 187.96 89.0508 186.24C132.701 187.94 171.911 160 183.951 120.2Z" stroke="#3E5C6D" stroke-width="3" stroke-miterlimit="10"/>
<path d="M119.261 15.26L114.711 4.95996" stroke="#3E5C6D" stroke-width="3" stroke-miterlimit="10"/>
<path d="M124.901 1.38965L114.441 5.56965" stroke="#3E5C6D" stroke-width="3" stroke-miterlimit="10"/>
<path d="M1.5003 94.9603C1.2303 57.5703 25.3403 24.9903 55.7203 11.1903C73.3003 3.21029 89.7303 2.99029 99.0503 3.62029C99.5303 3.65029 100.01 3.67029 100.49 3.70029C101.05 3.74029 101.6 3.78029 102.16 3.81029C101.74 3.78029 101.32 3.75029 100.91 3.72029C91.4403 2.92029 74.1803 2.81029 55.7203 11.1803C25.2203 25.0403 1.2303 57.6403 1.5003 94.9603ZM1.5003 94.9603C1.8003 136.53 32.1403 174.13 75.3603 184.48C32.1303 174.11 1.8003 136.5 1.5003 94.9603Z" stroke="#3E5C6D" stroke-width="3" stroke-miterlimit="10"/>
<path d="M69.4102 175.46L75.9202 184.65" stroke="#3E5C6D" stroke-width="3" stroke-miterlimit="10"/>
<path d="M66.6309 190.16L76.0609 184" stroke="#3E5C6D" stroke-width="3" stroke-miterlimit="10"/>
</g>
<defs>
<clipPath id="clip0_433_310">
<rect width="189.23" height="191.42" fill="white"/>
</clipPath>
</defs>
</svg>
