<svg width="1314" height="478" viewBox="0 0 1314 478" fill="none" xmlns="http://www.w3.org/2000/svg">
<path d="M41.2917 302.098H62.3967C64.7256 302.098 67.0059 300.391 66.8765 298.38C66.7633 296.369 64.9035 294.662 62.3967 294.662H41.2917C38.9628 294.662 36.6825 296.369 36.8119 298.38C36.9251 300.391 38.7849 302.098 41.2917 302.098Z" stroke="#D45835" stroke-miterlimit="10"/>
<path d="M108.472 297.543C116.397 295.364 124.321 293.154 132.246 290.975C134.461 290.35 136.159 288.37 135.383 286.389C134.671 284.56 132.246 283.143 129.852 283.783C121.927 285.962 114.003 288.172 106.078 290.35C103.863 290.975 102.165 292.956 102.941 294.937C103.653 296.765 106.078 298.183 108.472 297.543Z" stroke="#D45835" stroke-miterlimit="10"/>
<path d="M178.659 271.364C178.837 271.243 179.015 271.136 179.16 271.014C179.872 270.496 180.584 269.947 181.247 269.353C181.57 269.079 181.894 268.759 182.201 268.454C182.249 268.378 182.735 267.906 182.346 268.302C181.926 268.744 182.492 268.119 182.589 268.027C184.061 266.336 186.39 265.666 188.718 266.687C190.724 267.54 191.71 270.176 190.336 271.761C184.562 278.374 175.328 282.518 165.398 282.412L165.414 282.427L165.382 282.457C162.875 282.427 161.015 280.72 160.902 278.739C160.772 276.759 163.053 275.021 165.382 275.021C166.4 275.021 167.419 274.945 168.438 274.9C169.069 274.854 167.565 275.021 168.196 274.93C168.47 274.915 168.729 274.884 169.004 274.839C169.457 274.762 169.926 274.702 170.411 274.595C171.365 274.412 172.303 274.168 173.193 273.894C173.403 273.818 173.581 273.742 173.791 273.696M178.659 271.364C177.996 271.806 179.144 271.09 178.659 271.364ZM178.659 271.364C178.271 271.593 177.883 271.837 177.462 272.065C176.654 272.507 175.813 272.903 174.956 273.254C174.567 273.406 174.179 273.574 173.791 273.696M173.791 273.696C172.837 274.062 174.422 273.528 173.791 273.696Z" stroke="#D45835" stroke-miterlimit="10"/>
<path d="M220.143 261.795C228.181 257.589 236.235 253.369 244.272 249.163C246.245 248.127 247.232 245.796 245.89 244.089C244.547 242.382 241.879 241.636 239.76 242.748C231.723 246.954 223.669 251.174 215.631 255.38C213.658 256.416 212.671 258.747 214.014 260.454C215.356 262.161 218.024 262.907 220.143 261.795Z" stroke="#D45835" stroke-miterlimit="10"/>
<path d="M272.961 237.735C280.918 233.423 288.891 229.08 296.848 224.768C298.821 223.701 299.808 221.416 298.465 219.694C297.204 218.079 294.422 217.21 292.336 218.353C284.379 222.665 276.39 227.008 268.449 231.32C266.476 232.387 265.49 234.672 266.832 236.394C268.094 238.009 270.875 238.878 272.961 237.735Z" stroke="#D45835" stroke-miterlimit="10"/>
<path d="M332.864 214.239C339.107 212.258 345.398 210.293 351.641 208.312C353.824 207.611 355.554 205.782 354.778 203.725C354.083 201.973 351.608 200.373 349.247 201.12C343.004 203.101 336.713 205.066 330.471 207.047C328.287 207.748 326.557 209.577 327.333 211.634C328.029 213.401 330.503 214.986 332.864 214.239Z" stroke="#D45835" stroke-miterlimit="10"/>
<path d="M380.719 203.405C389.533 204.442 398.477 203.908 406.886 201.348C409.07 200.678 410.8 198.804 410.024 196.762C409.328 194.979 406.854 193.44 404.493 194.156C402.617 194.72 400.66 195.223 398.719 195.589C397.878 195.756 397.037 195.893 396.18 196.015C395.614 196.091 395.048 196.168 394.482 196.244C395.291 196.152 394.175 196.244 393.981 196.289C392.121 196.442 390.245 196.518 388.385 196.518C387.366 196.518 386.38 196.472 385.361 196.427C384.94 196.396 384.487 196.381 384.083 196.32C383.776 196.32 383.517 196.274 383.21 196.244C383.695 196.289 383.663 196.289 383.113 196.244C380.816 195.969 378.18 196.716 377.582 198.849C377.097 200.602 378.245 203.131 380.719 203.436V203.405Z" stroke="#D45835" stroke-miterlimit="10"/>
<path d="M432.067 201.424H458.477C460.806 201.424 463.086 199.718 462.956 197.706C462.843 195.695 460.983 193.988 458.477 193.988H432.067C429.738 193.988 427.458 195.695 427.587 197.706C427.7 199.718 429.56 201.424 432.067 201.424Z" stroke="#D45835" stroke-miterlimit="10"/>
<path d="M485.387 205.142C492.471 208.708 499.587 212.274 506.67 215.854C508.676 216.875 511.7 216.281 512.8 214.513C513.899 212.761 513.333 210.506 511.182 209.439C504.099 205.874 496.983 202.308 489.9 198.727C487.894 197.707 484.87 198.301 483.77 200.068C482.67 201.821 483.236 204.076 485.387 205.142Z" stroke="#D45835" stroke-miterlimit="10"/>
<path d="M535.44 231.564C536.54 232.189 537.624 232.799 538.723 233.454C539.225 233.759 539.742 234.079 540.243 234.368C540.518 234.536 540.81 234.719 541.084 234.886C541.149 234.932 541.796 235.328 541.473 235.13C541.084 234.886 541.925 235.435 542.006 235.48C542.281 235.648 542.54 235.846 542.815 236.029C543.3 236.349 543.801 236.699 544.287 237.019C545.305 237.72 546.324 238.437 547.311 239.168C551.225 242.063 554.912 245.187 558.308 248.493C559.828 249.987 563.095 249.91 564.648 248.493C566.378 246.909 566.297 244.821 564.648 243.236C557.467 236.303 549.122 230.254 539.985 225.149C538.044 224.052 534.939 224.784 533.855 226.49C532.659 228.38 533.37 230.406 535.473 231.564H535.44Z" stroke="#D45835" stroke-miterlimit="10"/>
<path d="M585.607 268.759C586.319 269.125 587.014 269.506 587.677 269.917C587.92 270.069 588.599 270.557 587.564 269.841C587.677 269.932 587.839 270.008 587.952 270.085C588.276 270.313 588.583 270.527 588.906 270.755C590.2 271.7 591.397 272.69 592.464 273.772C592.578 273.894 592.739 274.046 592.852 274.168C593.338 274.671 592.367 273.62 592.707 274.001C592.949 274.275 593.208 274.549 593.451 274.839C593.936 275.402 594.373 275.982 594.793 276.576C595.214 277.17 595.602 277.764 595.99 278.389C596.168 278.694 596.346 279.014 596.524 279.334C596.815 279.882 596.556 279.334 596.41 279.105C596.524 279.273 596.588 279.501 596.685 279.669C597.106 280.614 597.672 281.376 598.755 281.894C599.71 282.366 601.149 282.564 602.216 282.259C604.335 281.696 606.259 279.639 605.354 277.673C602.394 271.304 597.154 265.925 590.168 262.313C588.162 261.277 585.138 261.917 584.038 263.654C582.939 265.391 583.537 267.647 585.656 268.728H585.623L585.607 268.759Z" stroke="#D45835" stroke-miterlimit="10"/>
<path d="M623.824 299.143C629.177 304.201 634.531 309.26 639.851 314.304C641.404 315.767 644.638 315.721 646.191 314.304C647.921 312.75 647.84 310.616 646.191 309.047C640.838 303.988 635.485 298.929 630.164 293.886C628.611 292.423 625.377 292.469 623.824 293.886C622.094 295.44 622.175 297.573 623.824 299.143Z" stroke="#D45835" stroke-miterlimit="10"/>
<path d="M664.432 330.364C665.419 330.318 666.373 330.318 667.36 330.364C667.634 330.364 667.861 330.394 668.136 330.409C668.734 330.455 668.103 330.409 667.861 330.379C668.346 330.501 668.88 330.531 669.381 330.607C670.335 330.775 671.289 331.004 672.195 331.278C672.438 331.354 672.68 331.43 672.907 331.506C673.473 331.674 672.907 331.43 672.696 331.43C673.085 331.43 673.748 331.826 674.103 331.979C674.944 332.329 675.721 332.725 676.497 333.167C676.707 333.289 676.917 333.411 677.128 333.533C677.581 333.777 676.432 333.061 677.063 333.503C677.419 333.746 677.775 334.005 678.114 334.249C678.826 334.798 679.521 335.392 680.152 336.001C680.249 336.093 680.815 336.672 680.395 336.23C679.974 335.788 680.572 336.428 680.605 336.474C680.896 336.824 681.171 337.19 681.446 337.54C682.675 339.201 685.505 339.963 687.575 338.881C689.645 337.784 690.47 335.59 689.192 333.807C684.114 326.844 674.298 322.41 664.432 322.928C662.103 323.05 659.823 324.543 659.953 326.646C660.05 328.55 661.926 330.486 664.432 330.364Z" stroke="#D45835" stroke-miterlimit="10"/>
<path d="M707.904 350.249C708.05 350.249 709.78 350.021 708.859 350.127C709.279 350.082 709.732 350.051 710.152 350.005C711.171 349.929 712.158 349.884 713.177 349.853C715.053 349.807 716.912 349.853 718.805 350.005C719.225 350.036 719.678 350.082 720.098 350.112C720.632 350.158 720.664 350.158 720.195 350.112C720.406 350.143 720.616 350.158 720.826 350.188C721.748 350.31 722.686 350.463 723.575 350.63C725.549 350.996 727.489 351.468 729.381 352.017C731.597 352.657 734.379 351.27 734.912 349.411C735.478 347.324 734.136 345.541 731.775 344.825C723.349 342.326 714.341 341.853 705.527 343.042C703.198 343.362 701.694 345.846 702.39 347.628C703.198 349.716 705.414 350.585 707.921 350.234L707.953 350.265L707.904 350.249Z" stroke="#D45835" stroke-miterlimit="10"/>
<path d="M764.702 345.891C774.357 342.204 784.012 338.501 793.683 334.813C795.899 333.975 796.432 331.339 795.3 329.739C793.99 327.85 791.386 327.56 789.171 328.399C779.516 332.086 769.861 335.789 760.19 339.476C757.974 340.314 757.44 342.95 758.572 344.55C759.882 346.44 762.486 346.729 764.702 345.891Z" stroke="#D45835" stroke-miterlimit="10"/>
<path d="M823.359 322.836L839.175 311.865C840.971 310.601 840.857 307.873 839.175 306.609C837.267 305.146 834.744 305.268 832.836 306.609L817.019 317.58C815.224 318.844 815.337 321.572 817.019 322.836C818.927 324.299 821.45 324.177 823.359 322.836Z" stroke="#D45835" stroke-miterlimit="10"/>
<path d="M628.788 256.326C636.713 254.116 644.605 251.907 652.53 249.712C654.745 249.088 656.443 247.137 655.667 245.126C654.955 243.297 652.53 241.85 650.136 242.52C642.212 244.73 634.319 246.939 626.395 249.133C624.179 249.758 622.481 251.709 623.257 253.72C623.969 255.548 626.395 256.996 628.788 256.326Z" stroke="#D45835" stroke-miterlimit="10"/>
<path d="M683.338 239.625C684.745 238.436 686.232 237.324 687.785 236.273C688.448 235.831 687.429 236.501 687.85 236.227C688.028 236.105 688.238 235.998 688.416 235.876C688.804 235.648 689.192 235.434 689.58 235.206C690.453 234.703 691.343 234.246 692.265 233.789C693.995 232.951 695.79 232.204 697.618 231.534C698.216 231.305 696.906 231.762 697.521 231.564C697.731 231.488 697.974 231.412 698.184 231.336C698.685 231.183 699.17 231.016 699.672 230.894C700.691 230.589 701.677 230.345 702.728 230.101C705.009 229.583 706.61 227.45 705.866 225.515C705.122 223.58 702.761 222.361 700.335 222.909C691.521 224.966 683.386 228.928 676.982 234.353C675.332 235.739 675.187 238.238 676.982 239.61C678.777 240.981 681.591 241.103 683.321 239.61L683.338 239.625Z" stroke="#D45835" stroke-miterlimit="10"/>
<path d="M728.33 215.656C733.618 210.552 738.89 205.447 744.179 200.342C745.699 198.849 746.055 196.533 744.179 195.086C742.497 193.821 739.456 193.501 737.839 195.086C732.551 200.19 727.278 205.295 721.99 210.399C720.47 211.893 720.114 214.209 721.99 215.656C723.672 216.921 726.712 217.241 728.33 215.656Z" stroke="#D45835" stroke-miterlimit="10"/>
<path d="M765.687 178.827C768.566 170.843 771.396 162.889 774.275 154.92C774.938 153.061 773.466 150.775 771.138 150.333C768.809 149.891 766.318 150.928 765.607 152.939C762.744 160.923 759.898 168.877 757.019 176.846C756.356 178.705 757.828 180.991 760.156 181.433C762.485 181.875 764.976 180.839 765.687 178.827Z" stroke="#D45835" stroke-miterlimit="10"/>
<path d="M777.204 132.064V105.794C777.204 103.783 775.134 102.076 772.724 102.076C770.314 102.076 768.244 103.783 768.244 105.794V132.064C768.244 134.075 770.314 135.781 772.724 135.781C775.134 135.781 777.204 134.075 777.204 132.064Z" stroke="#D45835" stroke-miterlimit="10"/>
<path d="M777.204 90.4799V70.7778C777.204 68.8426 775.134 66.9684 772.724 67.0599C770.298 67.1665 768.244 68.6903 768.244 70.7778V90.4799C768.244 92.415 770.314 94.2892 772.724 94.1978C775.15 94.0912 777.204 92.5674 777.204 90.4799Z" stroke="#D45835" stroke-miterlimit="10"/>
<path d="M781.263 54.0016C783.382 48.257 785.484 42.4973 787.603 36.7527C788.298 34.8938 786.794 32.6081 784.465 32.1663C782.136 31.7244 779.678 32.7605 778.934 34.7719C776.816 40.5164 774.713 46.2762 772.595 52.0207C771.899 53.8797 773.403 56.1653 775.732 56.6072C778.061 57.0491 780.519 56.0129 781.263 54.0016Z" stroke="#D45835" stroke-miterlimit="10"/>
<path d="M801.138 23.4196C808.19 19.077 815.289 14.719 822.341 10.3916C824.217 9.23355 825.365 7.11554 823.958 5.31751C822.761 3.77853 819.834 2.74238 817.828 3.97661C810.777 8.3193 803.678 12.6772 796.626 17.0047C794.75 18.1627 793.602 20.2807 795.009 22.0787C796.206 23.6177 799.133 24.6539 801.138 23.4196Z" stroke="#D45835" stroke-miterlimit="10"/>
<path d="M789.705 0.944988C780.083 3.96201 770.444 6.99427 760.789 10.0113C758.606 10.7122 756.875 12.5407 757.652 14.5978C758.347 16.3501 760.821 17.9195 763.183 17.2034C772.805 14.1864 782.444 11.1541 792.099 8.13708C794.282 7.43616 796.013 5.60766 795.237 3.5506C794.541 1.79829 792.067 0.228826 789.705 0.944988Z" stroke="#D45835" stroke-miterlimit="10"/>
<path d="M734.459 25.4005L708.228 32.3945C705.98 32.9888 704.346 35.0001 705.09 36.981C705.802 38.84 708.228 40.2266 710.621 39.5866L736.853 32.5926C739.101 31.9983 740.734 29.987 739.99 28.0061C739.279 26.1471 736.853 24.7605 734.459 25.4005Z" stroke="#D45835" stroke-miterlimit="10"/>
<path d="M677.661 38.5056C667.343 38.4294 657.025 40.0141 647.484 43.2444C645.333 43.991 643.538 45.7434 644.346 47.8309C645.042 49.568 647.548 51.2289 649.877 50.4365C658.934 47.3585 668.055 45.8805 677.694 45.9567C680.023 45.9567 682.303 44.2196 682.174 42.2387C682.06 40.2579 680.201 38.5513 677.694 38.5208H677.661V38.5056Z" stroke="#D45835" stroke-miterlimit="10"/>
<path d="M623.806 54.642C616.755 61.2094 609.72 67.7463 602.669 74.3136C601.116 75.7764 600.809 78.1535 602.669 79.5705C604.367 80.8657 607.327 81.1248 609.009 79.5705C616.06 73.0032 623.095 66.4663 630.146 59.899C631.699 58.4362 632.006 56.0591 630.146 54.642C628.448 53.3468 625.488 53.0878 623.806 54.642Z" stroke="#D45835" stroke-miterlimit="10"/>
<path d="M593.953 108.003V132.063C593.953 133.999 596.023 135.873 598.433 135.781C600.859 135.675 602.913 134.151 602.913 132.063V108.003C602.913 106.068 600.843 104.194 598.433 104.285C596.007 104.392 593.953 105.916 593.953 108.003Z" stroke="#D45835" stroke-miterlimit="10"/>
<path d="M591.284 158.333C590.443 167.994 592.627 177.563 597.236 186.461C598.19 188.32 601.489 188.717 603.365 187.802C605.662 186.69 605.937 184.587 604.983 182.728C601.004 175.018 599.565 166.698 600.26 158.363C600.438 156.352 598.077 154.646 595.78 154.646C593.209 154.646 591.479 156.352 591.301 158.363V158.333H591.284Z" stroke="#D45835" stroke-miterlimit="10"/>
<path d="M600.098 205.097C602.427 212.289 603.09 220.09 601.828 227.328C601.505 229.233 602.394 231.412 604.966 231.915C607.084 232.311 610.109 231.366 610.497 229.309C612.017 220.532 611.548 211.71 608.766 203.116C608.136 201.181 605.564 199.992 603.235 200.51C600.906 201.028 599.467 203.131 600.098 205.097Z" stroke="#D45835" stroke-miterlimit="10"/>
<path d="M870.033 297.237C877.036 294.236 884.023 291.264 891.025 288.262C893.112 287.363 893.904 284.788 892.643 283.188C891.268 281.436 888.761 280.903 886.513 281.847C879.511 284.849 872.524 287.821 865.521 290.822C863.435 291.721 862.643 294.296 863.904 295.896C865.279 297.649 867.785 298.182 870.033 297.237Z" stroke="#D45835" stroke-miterlimit="10"/>
<path d="M920.573 280.431C928.643 280.339 936.697 278.374 943.473 274.701C945.446 273.635 946.433 271.349 945.09 269.627C943.829 268.012 941.047 267.144 938.961 268.286C937.473 269.109 935.904 269.825 934.271 270.465C934.093 270.542 932.654 271.09 933.705 270.694C933.382 270.816 933.042 270.922 932.718 271.014C931.878 271.288 931.037 271.517 930.179 271.73C928.53 272.157 926.832 272.477 925.134 272.69C924.891 272.72 924.648 272.736 924.422 272.781C925.02 272.705 925.053 272.705 924.535 272.781C924.179 272.812 923.824 272.858 923.452 272.888C922.497 272.964 921.543 272.98 920.573 273.01C918.244 273.04 915.964 274.701 916.093 276.728C916.206 278.755 918.066 280.476 920.573 280.446V280.415V280.431Z" stroke="#D45835" stroke-miterlimit="10"/>
<path d="M966.616 255.456L972.211 242.428C972.988 240.6 971.322 238.283 969.074 237.842C966.567 237.369 964.416 238.466 963.543 240.447L957.947 253.475C957.171 255.304 958.837 257.62 961.085 258.062C963.591 258.534 965.742 257.437 966.616 255.456Z" stroke="#D45835" stroke-miterlimit="10"/>
<path d="M980.491 221.782V202.08C980.491 200.144 978.421 198.27 975.995 198.362C973.586 198.453 971.516 199.992 971.516 202.08V221.782C971.516 223.717 973.586 225.591 975.995 225.5C978.421 225.393 980.491 223.869 980.491 221.782Z" stroke="#D45835" stroke-miterlimit="10"/>
<path d="M975.204 188.96V171.467C975.204 169.532 973.15 167.658 970.724 167.749C968.298 167.841 966.244 169.38 966.244 171.467V188.96C966.244 190.895 968.314 192.769 970.724 192.678C973.15 192.586 975.204 191.047 975.204 188.96Z" stroke="#D45835" stroke-miterlimit="10"/>
<path d="M987.074 170.355C989.225 177.41 990.18 183.795 990.115 191.154C990.115 193.089 992.185 194.964 994.611 194.872C997.037 194.781 999.091 193.242 999.091 191.154C999.155 183.49 997.975 175.81 995.71 168.374C995.144 166.485 992.476 165.174 990.179 165.769C987.883 166.363 986.444 168.313 987.042 170.355H987.074Z" stroke="#D45835" stroke-miterlimit="10"/>
<path d="M1005.04 210.17H1023.51C1025.84 210.17 1028.12 208.464 1028.01 206.452C1027.88 204.441 1026.03 202.734 1023.51 202.734H1005.04C1002.71 202.734 1000.43 204.441 1000.55 206.452C1000.67 208.464 1002.52 210.17 1005.04 210.17Z" stroke="#D45835" stroke-miterlimit="10"/>
<path d="M1024.48 222.986C1024.03 224.769 1023.43 226.536 1022.65 228.243C1022.52 228.487 1022.43 228.746 1022.3 228.989C1022.27 229.066 1021.97 229.69 1022.15 229.294C1022.33 228.898 1022.02 229.523 1022.01 229.599C1021.88 229.797 1021.8 229.995 1021.67 230.193C1021.18 231.062 1020.65 231.93 1020.08 232.768C1019.55 233.561 1018.97 234.353 1018.37 235.1C1018.08 235.45 1017.8 235.816 1017.49 236.166C1017.35 236.334 1017.2 236.517 1017.04 236.684C1017.04 236.684 1016.36 237.446 1016.69 237.081C1016.98 236.761 1016.48 237.279 1016.44 237.324C1016.3 237.492 1016.12 237.644 1015.96 237.827C1015.57 238.193 1015.21 238.574 1014.83 238.924C1014.05 239.64 1013.21 240.341 1012.37 240.981C1010.67 242.322 1010.61 244.897 1012.37 246.238C1014.13 247.579 1016.88 247.671 1018.71 246.238C1025.9 240.57 1031.05 233.027 1033.12 224.982C1033.6 223.077 1032.42 220.868 1029.96 220.395C1027.72 219.969 1024.97 220.959 1024.43 223.001V223.032L1024.48 222.986Z" stroke="#D45835" stroke-miterlimit="10"/>
<path d="M1031.87 251.19C1037.19 253.323 1042.51 255.456 1047.82 257.589C1048.93 258.031 1050.06 258.229 1051.29 257.955C1052.33 257.711 1053.48 257.056 1053.98 256.248C1055.03 254.588 1054.63 252.058 1052.36 251.174C1047.04 249.041 1041.72 246.908 1036.42 244.775C1035.32 244.333 1034.17 244.135 1032.95 244.409C1031.9 244.653 1030.77 245.308 1030.25 246.116C1029.22 247.776 1029.61 250.306 1031.87 251.19Z" stroke="#D45835" stroke-miterlimit="10"/>
<path d="M1039.38 282.351C1042.22 282.549 1045.08 281.924 1047.62 280.858C1050.16 279.791 1052.28 278.1 1053.79 276.149C1055.03 274.519 1054.27 271.99 1052.18 271.075C1049.97 270.115 1047.4 270.649 1046.05 272.416C1045.84 272.66 1045.63 272.919 1045.42 273.163L1046.1 272.416C1045.51 273.041 1044.86 273.574 1044.11 274.047L1045 273.483C1044.2 273.986 1043.35 274.397 1042.43 274.717L1043.52 274.351C1042.56 274.702 1041.54 274.915 1040.49 275.052L1041.69 274.93C1040.91 275.007 1040.14 275.037 1039.36 274.976C1038.28 274.9 1036.93 275.448 1036.19 276.073C1035.43 276.698 1034.81 277.78 1034.88 278.694C1034.93 279.608 1035.3 280.644 1036.19 281.315C1037.08 281.985 1038.13 282.336 1039.36 282.412L1039.39 282.366L1039.38 282.351Z" stroke="#D45835" stroke-miterlimit="10"/>
<path d="M955.294 292.834C961.455 295.759 967.617 298.654 973.779 301.58C975.8 302.54 978.776 302.022 979.908 300.239C981.04 298.456 980.474 296.171 978.291 295.165C972.129 292.239 965.968 289.344 959.806 286.419C957.768 285.459 954.809 285.977 953.676 287.759C952.544 289.542 953.11 291.828 955.294 292.834Z" stroke="#D45835" stroke-miterlimit="10"/>
<path d="M992.072 317.016C993.948 324.3 995.808 331.568 997.7 338.852C998.185 340.756 1001.02 342.051 1003.23 341.457C1005.66 340.817 1006.89 338.928 1006.38 336.871C1004.51 329.587 1002.65 322.319 1000.76 315.035C1000.27 313.131 997.441 311.836 995.209 312.43C992.799 313.07 991.57 314.959 992.072 317.016Z" stroke="#D45835" stroke-miterlimit="10"/>
<path d="M1025.37 339.963V320.261C1025.37 318.326 1023.32 316.452 1020.89 316.543C1018.46 316.635 1016.41 318.174 1016.41 320.261V339.963C1016.41 341.898 1018.46 343.773 1020.89 343.681C1023.32 343.59 1025.37 342.051 1025.37 339.963Z" stroke="#D45835" stroke-miterlimit="10"/>
<path d="M1026.23 313.389C1036.74 312.445 1047.32 311.53 1057.83 310.586C1060.25 310.357 1062.32 309.032 1062.32 306.868C1062.32 305.039 1060.25 302.921 1057.83 303.15C1047.32 304.095 1036.74 305.009 1026.23 305.954C1023.8 306.182 1021.73 307.508 1021.73 309.671C1021.73 311.5 1023.8 313.618 1026.23 313.389Z" stroke="#D45835" stroke-miterlimit="10"/>
<path d="M1031.45 295.532H1042.01C1043.14 295.532 1044.37 295.105 1045.18 294.434C1045.99 293.764 1046.55 292.728 1046.49 291.814C1046.36 289.802 1044.52 288.096 1042.01 288.096H1031.45C1030.32 288.096 1029.09 288.522 1028.28 289.193C1027.47 289.863 1026.91 290.899 1026.97 291.814C1027.1 293.825 1028.94 295.532 1031.45 295.532Z" stroke="#D45835" stroke-miterlimit="10"/>
<path d="M980.313 148.596C978.518 140.642 972.842 133.679 965.03 128.894C963.154 127.736 959.952 128.574 958.901 130.235C957.672 132.17 958.48 134.075 960.518 135.309C960.631 135.386 961.391 135.858 960.842 135.507C960.356 135.187 960.955 135.584 961.019 135.629C961.408 135.904 961.763 136.147 962.151 136.422C962.928 136.985 963.672 137.61 964.399 138.25C964.723 138.54 965.063 138.875 965.386 139.164C965.564 139.332 965.742 139.515 965.92 139.683C966.34 140.079 965.467 139.164 965.823 139.591C966.453 140.292 967.052 141.008 967.585 141.74C968.087 142.441 968.604 143.157 969.057 143.903C969.267 144.269 969.51 144.65 969.688 145.016C969.753 145.092 969.785 145.183 969.833 145.259C969.947 145.503 969.93 145.427 969.72 145.016C969.72 145.016 969.93 145.488 969.963 145.534C970.707 147.149 971.273 148.825 971.661 150.547C972.081 152.452 975.009 153.716 977.192 153.152C979.683 152.482 980.782 150.623 980.346 148.566L980.313 148.596Z" stroke="#D45835" stroke-miterlimit="10"/>
<path d="M959.872 118.913C959.063 110.883 958.222 102.853 957.414 94.8227C957.204 92.8876 955.505 91.0134 952.934 91.1048C950.654 91.181 948.244 92.7352 948.454 94.8227C949.263 102.853 950.104 110.883 950.912 118.913C951.123 120.848 952.821 122.723 955.392 122.631C957.673 122.555 960.082 121.001 959.872 118.913Z" stroke="#D45835" stroke-miterlimit="10"/>
<path d="M971.548 76.7972C976.675 70.8546 981.753 64.9272 986.864 58.9846C988.238 57.3999 987.252 54.7791 985.247 53.9105C982.95 52.8896 980.556 53.5448 979.117 55.2514C974.007 61.194 968.928 67.1214 963.818 73.064C962.443 74.6487 963.43 77.2696 965.435 78.1381C967.732 79.159 970.125 78.5038 971.565 76.7972H971.548Z" stroke="#D45835" stroke-miterlimit="10"/>
<path d="M1012.96 52.6146H1036.74C1039.07 52.6146 1041.35 50.908 1041.22 48.8967C1041.09 46.8853 1039.25 45.1787 1036.74 45.1787H1012.96C1010.64 45.1787 1008.36 46.8853 1008.47 48.8967C1008.58 50.908 1010.44 52.6146 1012.96 52.6146Z" stroke="#D45835" stroke-miterlimit="10"/>
<path d="M1061.26 55.8145L1079.47 62.8542C1080.58 63.2809 1081.68 63.4942 1082.94 63.2199C1084 62.9761 1085.13 62.3209 1085.63 61.5133C1086.68 59.8829 1086.29 57.3078 1084.03 56.4392L1065.82 49.3995C1064.7 48.9729 1063.6 48.7595 1062.34 49.0338C1061.29 49.2776 1060.16 49.9328 1059.66 50.7404C1058.6 52.3708 1058.99 54.946 1061.26 55.8145Z" stroke="#D45835" stroke-miterlimit="10"/>
<path d="M1092.99 75.1665V90.4802C1092.99 92.4153 1095.06 94.2895 1097.48 94.1981C1099.91 94.1067 1101.96 92.5677 1101.96 90.4802V75.1665C1101.96 73.2313 1099.91 71.3571 1097.48 71.4485C1095.06 71.5552 1092.99 73.0789 1092.99 75.1665Z" stroke="#D45835" stroke-miterlimit="10"/>
<path d="M1090.34 113.519C1087.59 120.788 1084.87 128.071 1082.12 135.324C1081.42 137.183 1082.96 139.469 1085.26 139.911C1087.72 140.383 1090.01 139.286 1090.79 137.305C1093.54 130.037 1096.25 122.753 1099.02 115.5C1099.7 113.641 1098.18 111.356 1095.87 110.914C1093.42 110.441 1091.11 111.539 1090.34 113.519Z" stroke="#D45835" stroke-miterlimit="10"/>
<path d="M1082.85 159.567C1080.42 167.993 1082.25 177.166 1088.07 184.373C1089.4 185.989 1092.08 186.857 1094.2 185.714C1096.14 184.678 1097.22 182.347 1095.82 180.64C1095.15 179.848 1094.57 179.025 1094.02 178.187C1093.75 177.76 1093.49 177.349 1093.25 176.892C1093.18 176.77 1092.74 175.871 1093.02 176.465C1092.18 174.759 1091.55 172.945 1091.13 171.132C1091.03 170.705 1090.95 170.309 1090.88 169.898C1091.01 170.66 1090.84 169.227 1090.84 169.105C1090.74 168.206 1090.71 167.323 1090.74 166.424C1090.77 165.525 1090.84 164.641 1090.95 163.742C1090.84 164.504 1091.09 163.102 1091.13 162.95C1091.26 162.477 1091.35 162.005 1091.48 161.532C1092.02 159.643 1090.77 157.418 1088.35 156.946C1085.92 156.474 1083.41 157.51 1082.81 159.552H1082.85V159.567Z" stroke="#D45835" stroke-miterlimit="10"/>
<path d="M1090.45 208.571C1090.51 208.068 1090.59 207.581 1090.59 207.078C1090.69 206.148 1090.66 205.204 1090.59 204.259L1090.61 204.274V204.244C1090.46 202.156 1092.81 200.602 1095.1 200.526C1097.61 200.434 1099.44 202.308 1099.58 204.244C1100.22 213.295 1095.46 222.59 1087.08 228.41C1085.17 229.751 1082.65 229.873 1080.74 228.41C1079.08 227.146 1078.95 224.418 1080.74 223.153C1081.67 222.513 1082.54 221.812 1083.38 221.096C1083.8 220.746 1084.19 220.35 1084.58 219.984C1084.75 219.816 1084.9 219.633 1085.08 219.466C1085.4 219.146 1084.74 219.862 1085.22 219.298C1086.53 217.744 1087.65 216.129 1088.6 214.392C1088.23 215.032 1088.64 214.316 1088.68 214.194C1088.78 213.996 1088.86 213.767 1088.96 213.569C1089.15 213.112 1089.35 212.624 1089.53 212.152C1089.82 211.253 1090.09 210.308 1090.3 209.394C1090.35 209.12 1090.38 208.845 1090.45 208.571ZM1090.45 208.571C1090.38 208.937 1090.41 208.937 1090.45 208.571Z" stroke="#D45835" stroke-miterlimit="10"/>
<path d="M1072.54 233.621L1056.74 236.028C1054.45 236.379 1052.93 238.802 1053.61 240.615C1054.41 242.672 1056.66 243.586 1059.14 243.22L1074.94 240.813C1077.23 240.462 1078.75 238.04 1078.08 236.226C1077.27 234.169 1075.02 233.255 1072.54 233.621Z" stroke="#D45835" stroke-miterlimit="10"/>
<path d="M1024.32 355.277V372.769C1024.32 374.705 1026.39 376.579 1028.81 376.487C1031.24 376.396 1033.29 374.857 1033.29 372.769V355.277C1033.29 353.342 1031.24 351.467 1028.81 351.559C1026.39 351.65 1024.32 353.189 1024.32 355.277Z" stroke="#D45835" stroke-miterlimit="10"/>
<path d="M1026.19 394.666C1018.84 401.158 1013.39 409.02 1010.43 417.568C1009.78 419.427 1011.2 421.713 1013.56 422.155C1015.92 422.597 1018.38 421.561 1019.11 419.549C1019.43 418.589 1019.82 417.614 1020.21 416.654C1020.39 416.212 1020.6 415.755 1020.81 415.313C1020.91 415.085 1021.02 414.871 1021.13 414.643C1021.13 414.597 1021.47 413.942 1021.31 414.277C1021.16 414.597 1021.49 413.957 1021.52 413.911C1021.67 413.637 1021.83 413.363 1021.97 413.089C1022.2 412.662 1022.46 412.22 1022.72 411.793C1023.25 410.879 1023.83 409.98 1024.45 409.112C1025.61 407.405 1026.94 405.744 1028.34 404.159C1028.52 403.961 1028.67 403.794 1028.85 403.596C1028.99 403.428 1029.23 403.199 1028.94 403.489C1029.3 403.123 1029.65 402.742 1030.01 402.377C1030.85 401.554 1031.72 400.746 1032.58 399.969C1034.18 398.552 1034.41 396.099 1032.58 394.712C1030.75 393.326 1027.94 393.204 1026.24 394.712L1026.19 394.666Z" stroke="#D45835" stroke-miterlimit="10"/>
<path d="M1005.85 364.024V381.517C1005.85 383.452 1007.9 385.326 1010.33 385.234C1012.76 385.143 1014.83 383.604 1014.83 381.517V364.024C1014.83 362.089 1012.76 360.215 1010.33 360.306C1007.9 360.397 1005.85 361.936 1005.85 364.024Z" stroke="#D45835" stroke-miterlimit="10"/>
<path d="M1011.28 444.889C1014.91 450.694 1018.5 456.484 1022.1 462.29C1023.19 464.027 1026.29 464.667 1028.23 463.631C1030.37 462.488 1030.98 460.416 1029.85 458.557C1026.23 452.751 1022.64 446.961 1019.03 441.155C1017.95 439.418 1014.84 438.778 1012.9 439.814C1010.77 440.957 1010.15 443.03 1011.28 444.889Z" stroke="#D45835" stroke-miterlimit="10"/>
<path d="M1043.53 474.48C1049.69 475.242 1055.84 476.019 1061.97 476.811C1063.2 476.964 1064.3 476.979 1065.45 476.445C1066.37 476.004 1067.27 475.105 1067.52 474.221C1068 472.469 1066.85 469.954 1064.36 469.634C1058.2 468.872 1052.06 468.095 1045.93 467.303C1044.7 467.151 1043.6 467.135 1042.45 467.669C1041.53 468.111 1040.62 469.01 1040.38 469.893C1039.89 471.646 1041.04 474.16 1043.53 474.48Z" stroke="#D45835" stroke-miterlimit="10"/>
<path d="M1088.34 477.01C1093.1 477.574 1097.6 477.101 1102.01 475.516C1106.02 474.084 1109.34 471.677 1111.84 468.705C1113.19 467.121 1112.26 464.485 1110.24 463.631C1107.93 462.61 1105.55 463.266 1104.11 464.972C1104.02 465.064 1103.51 465.612 1103.98 465.14C1104.44 464.698 1103.98 465.14 1103.92 465.216C1103.66 465.49 1103.39 465.734 1103.11 465.978C1102.54 466.481 1101.95 466.923 1101.32 467.364C1100.81 467.715 1101.43 467.197 1101.57 467.197C1101.43 467.197 1101.12 467.471 1101.01 467.517C1100.68 467.715 1100.33 467.882 1099.96 468.065C1099.25 468.416 1098.47 468.66 1097.77 469.01C1097.95 468.934 1098.65 468.705 1098.06 468.888C1097.89 468.934 1097.74 468.98 1097.56 469.041C1097.16 469.162 1096.79 469.269 1096.4 469.361C1095.59 469.559 1094.81 469.681 1094.01 469.802C1093.44 469.879 1095.06 469.711 1094.25 469.772C1094.07 469.772 1093.88 469.802 1093.71 469.818C1093.29 469.848 1092.91 469.863 1092.49 469.863C1092.06 469.863 1091.68 469.863 1091.26 469.833C1090.84 469.802 1089.38 469.635 1090.8 469.833C1089.56 469.681 1088.47 469.665 1087.33 470.199C1086.4 470.64 1085.5 471.54 1085.27 472.423C1084.79 474.176 1085.92 476.69 1088.41 477.01L1088.31 476.979L1088.34 477.01Z" stroke="#D45835" stroke-miterlimit="10"/>
<path d="M1130.31 456.759C1133.94 448.774 1137.58 440.775 1141.2 432.79C1142.04 430.962 1140.28 428.631 1138.06 428.204C1135.52 427.731 1133.42 428.844 1132.53 430.81C1128.91 438.794 1125.25 446.794 1121.65 454.778C1120.8 456.607 1122.57 458.938 1124.78 459.365C1127.32 459.837 1129.42 458.725 1130.33 456.759H1130.31Z" stroke="#D45835" stroke-miterlimit="10"/>
<path d="M1141.28 415.572C1140.19 409.036 1137.38 402.681 1133.21 397.059C1131.98 395.398 1129.15 394.636 1127.08 395.718C1125.02 396.815 1124.15 399.04 1125.48 400.792C1126.46 402.102 1127.35 403.474 1128.16 404.86C1128.37 405.226 1128.58 405.607 1128.79 405.973C1128.89 406.171 1129 406.338 1129.08 406.537C1128.94 406.252 1128.94 406.242 1129.08 406.506C1129.41 407.177 1129.71 407.847 1130.01 408.533C1131.25 411.458 1132.14 414.46 1132.64 417.523C1132.79 418.361 1133.87 419.336 1134.7 419.748C1135.65 420.22 1137.09 420.418 1138.17 420.113C1140.74 419.412 1141.63 417.614 1141.31 415.527H1141.28V415.572Z" stroke="#D45835" stroke-miterlimit="10"/>
<path d="M1125.32 383.924C1121.79 379.566 1118.27 375.178 1114.74 370.82C1113.43 369.204 1110.74 368.336 1108.61 369.479C1106.67 370.515 1105.62 372.831 1107.01 374.553C1110.53 378.911 1114.06 383.299 1117.59 387.657C1118.9 389.272 1121.58 390.141 1123.72 388.998C1125.66 387.962 1126.71 385.646 1125.32 383.924Z" stroke="#D45835" stroke-miterlimit="10"/>
<path d="M1109.89 359.635V344.322C1109.89 342.387 1107.83 340.512 1105.41 340.604C1102.98 340.71 1100.91 342.234 1100.91 344.322V359.635C1100.91 361.571 1102.98 363.445 1105.41 363.353C1107.83 363.247 1109.89 361.723 1109.89 359.635Z" stroke="#D45835" stroke-miterlimit="10"/>
<path d="M1129.17 333.442C1135.59 327.819 1141.99 322.166 1148.43 316.543C1150.03 315.126 1150.25 312.673 1148.43 311.286C1146.6 309.9 1143.79 309.778 1142.09 311.286C1135.67 316.909 1129.26 322.562 1122.83 328.185C1121.23 329.602 1121 332.055 1122.83 333.442C1124.65 334.828 1127.47 334.95 1129.17 333.442Z" stroke="#D45835" stroke-miterlimit="10"/>
<path d="M1152.4 302.738C1152.14 293.52 1146.06 284.819 1136.59 280.019C1134.58 278.999 1131.57 279.593 1130.46 281.36C1129.34 283.113 1129.92 285.368 1132.06 286.434C1132.56 286.678 1133.08 286.952 1133.56 287.227C1133.74 287.349 1133.95 287.455 1134.13 287.577C1135.05 288.126 1133.71 287.257 1134.19 287.623C1135.03 288.248 1135.89 288.842 1136.68 289.512C1137.04 289.832 1137.4 290.152 1137.75 290.472C1137.93 290.64 1138.14 290.838 1138.32 291.036C1138.85 291.585 1138.09 290.731 1138.38 291.082C1139.05 291.844 1139.66 292.59 1140.24 293.413C1140.78 294.175 1141.23 294.967 1141.68 295.775C1141.26 295.028 1141.62 295.684 1141.68 295.851C1141.81 296.08 1141.89 296.293 1141.97 296.552C1142.15 296.979 1142.31 297.39 1142.46 297.817C1142.8 298.716 1142.99 299.63 1143.22 300.544C1143.36 301.26 1143.19 300.102 1143.22 300.575C1143.22 300.819 1143.28 301.078 1143.3 301.291C1143.36 301.794 1143.4 302.251 1143.4 302.754C1143.46 304.689 1145.43 306.563 1147.89 306.472C1150.33 306.38 1152.44 304.841 1152.37 302.754H1152.44L1152.4 302.738Z" stroke="#D45835" stroke-miterlimit="10"/>
<path d="M1118.59 268.394H1097.48C1095.15 268.394 1092.87 270.1 1092.99 272.112C1093.1 274.123 1094.96 275.829 1097.48 275.829H1118.59C1120.92 275.829 1123.2 274.123 1123.07 272.112C1122.94 270.1 1121.09 268.394 1118.59 268.394Z" stroke="#D45835" stroke-miterlimit="10"/>
<path d="M1077.79 270.725L1067.24 272.904C1064.98 273.376 1063.38 275.601 1064.1 277.49C1064.81 279.38 1067.18 280.584 1069.63 280.096L1080.18 277.917C1082.44 277.445 1084.04 275.22 1083.32 273.33C1082.6 271.441 1080.24 270.237 1077.79 270.725Z" stroke="#D45835" stroke-miterlimit="10"/>
<path d="M1121.24 67.9291H1147.63C1149.96 67.9291 1152.24 66.2225 1152.13 64.2111C1152 62.1998 1150.16 60.4932 1147.63 60.4932H1121.24C1118.91 60.4932 1116.63 62.1998 1116.74 64.2111C1116.87 66.2225 1118.72 67.9291 1121.24 67.9291Z" stroke="#D45835" stroke-miterlimit="10"/>
<path d="M1171.33 77.1933H1171.57C1171.18 77.1933 1170.76 77.1171 1170.37 77.0866C1171.21 77.1933 1172.04 77.3304 1172.88 77.5132C1173.3 77.6199 1173.69 77.7113 1174.11 77.8332C1174.29 77.879 1174.46 77.9399 1174.64 78.0008C1175.01 78.1227 1175.56 78.4427 1174.43 77.9247C1175.14 78.2446 1175.9 78.4885 1176.58 78.8389C1176.94 79.0065 1177.31 79.2046 1177.67 79.4027C1177.81 79.5094 1177.99 79.5703 1178.15 79.677C1178.93 80.1493 1177.62 79.3113 1177.97 79.5551C1178.6 79.9817 1179.23 80.4236 1179.8 80.896C1180.11 81.1398 1180.4 81.414 1180.67 81.6578C1180.79 81.7797 1180.9 81.9016 1181.06 82.0235C1181.29 82.2673 1181.56 82.7702 1180.93 81.8712C1181.38 82.4654 1181.89 83.0292 1182.31 83.6235C1182.48 83.8978 1182.66 84.1873 1182.84 84.4615L1183.13 84.9796C1183.13 84.9796 1182.65 83.9892 1183.03 84.812C1183.45 85.7263 1184.02 86.5186 1185.1 87.0367C1186.06 87.509 1187.5 87.7071 1188.58 87.4024C1190.7 86.8386 1192.61 84.7815 1191.72 82.8159C1190.17 79.4179 1187.66 76.3704 1184.18 74.1001C1182.32 72.8811 1180.45 71.8906 1178.26 71.144C1176.08 70.3973 1173.8 69.925 1171.41 69.6812C1170.37 69.5745 1168.96 70.184 1168.24 70.7783C1167.46 71.4183 1166.86 72.4849 1166.93 73.3991C1166.99 74.3134 1167.35 75.3495 1168.24 76.02C1169.16 76.7361 1170.15 76.9799 1171.41 77.1171L1171.31 77.1476L1171.33 77.1933Z" stroke="#D45835" stroke-miterlimit="10"/>
<path d="M1201.23 101.436V123.317C1201.23 125.252 1203.3 127.126 1205.72 127.035C1208.13 126.944 1210.2 125.405 1210.2 123.317V101.436C1210.2 99.5008 1208.13 97.6266 1205.72 97.7181C1203.3 97.8095 1201.23 99.3485 1201.23 101.436Z" stroke="#D45835" stroke-miterlimit="10"/>
<path d="M1199.92 140.368C1193.22 145.594 1188.29 152.238 1185.58 159.521C1184.9 161.38 1186.42 163.666 1188.71 164.108C1191.14 164.58 1193.5 163.483 1194.26 161.502C1194.55 160.71 1194.86 159.948 1195.21 159.171C1195.39 158.805 1195.55 158.302 1195.78 157.952C1195.6 158.195 1195.52 158.455 1195.75 158.043C1195.88 157.815 1195.99 157.601 1196.12 157.373C1196.99 155.834 1197.95 154.356 1199.01 152.908C1199.55 152.207 1200.1 151.521 1200.66 150.851C1200.96 150.501 1201.26 150.104 1201.59 149.815C1201.34 150.043 1201.23 150.211 1201.52 149.891C1201.67 149.739 1201.81 149.586 1201.97 149.449C1203.32 148.108 1204.76 146.844 1206.28 145.655C1207.97 144.314 1208.01 141.739 1206.28 140.398C1204.45 139.011 1201.76 138.981 1199.94 140.398V140.352L1199.92 140.368Z" stroke="#D45835" stroke-miterlimit="10"/>
<path d="M1180.12 180.213V197.706C1180.12 199.641 1182.18 201.515 1184.6 201.424C1187.03 201.317 1189.08 199.794 1189.08 197.706V180.213C1189.08 178.278 1187.03 176.404 1184.6 176.495C1182.18 176.587 1180.12 178.126 1180.12 180.213Z" stroke="#D45835" stroke-miterlimit="10"/>
<path d="M1187.48 217.469L1190.72 239.305C1191.01 241.24 1192.58 243.114 1195.2 243.022C1197.38 242.946 1199.98 241.362 1199.69 239.305L1196.46 217.469C1196.17 215.534 1194.6 213.66 1191.98 213.751C1189.8 213.827 1187.19 215.412 1187.5 217.469H1187.48Z" stroke="#D45835" stroke-miterlimit="10"/>
<path d="M1183.33 252.896C1174.59 254.588 1165.86 256.264 1157.09 257.955C1154.83 258.397 1153.23 260.683 1153.96 262.542C1154.73 264.522 1157.03 265.619 1159.49 265.147C1168.22 263.456 1176.95 261.78 1185.72 260.088C1187.98 259.646 1189.58 257.361 1188.86 255.502C1188.08 253.521 1185.78 252.424 1183.33 252.896Z" stroke="#D45835" stroke-miterlimit="10"/>
<path d="M1135.63 255.411L1117.24 250.779C1115 250.215 1112.25 251.449 1111.71 253.384C1111.18 255.32 1112.43 257.346 1114.85 257.971L1133.24 262.603C1135.49 263.167 1138.24 261.933 1138.77 259.997C1139.3 258.062 1138.06 256.036 1135.63 255.411Z" stroke="#D45835" stroke-miterlimit="10"/>
<path d="M1094.78 250.474C1086.86 251.175 1078.93 251.861 1071.01 252.562C1068.68 252.76 1066.4 254.116 1066.53 256.28C1066.63 258.108 1068.5 260.226 1071.01 259.997C1078.93 259.297 1086.86 258.611 1094.78 257.91C1097.11 257.712 1099.39 256.356 1099.28 254.192C1099.18 252.363 1097.3 250.245 1094.78 250.474Z" stroke="#D45835" stroke-miterlimit="10"/>
<path d="M1123.17 195.527C1126.58 190.377 1130.01 185.211 1133.42 180.061C1134.55 178.355 1133.98 175.917 1131.8 174.987C1129.62 174.042 1126.87 174.484 1125.67 176.328C1122.28 181.478 1118.83 186.644 1115.42 191.794C1114.29 193.501 1114.85 195.939 1117.04 196.868C1119.22 197.798 1121.97 197.371 1123.17 195.527Z" stroke="#D45835" stroke-miterlimit="10"/>
<path d="M1153.47 165.342C1161.78 158.927 1166.76 150.12 1167.88 140.81C1168.11 138.875 1165.63 137.016 1163.38 137.092C1160.76 137.184 1159.13 138.723 1158.91 140.81C1158.91 141.039 1158.84 141.282 1158.81 141.511C1158.78 141.816 1158.71 141.953 1158.81 141.557C1158.71 142.075 1158.6 142.593 1158.48 143.111C1158.24 144.071 1157.98 145.077 1157.64 146.006C1157.3 146.951 1156.92 147.911 1156.48 148.825C1156.38 149.054 1156.27 149.267 1156.16 149.465C1155.88 150.013 1156.38 148.993 1156.09 149.541C1155.83 150.013 1155.56 150.501 1155.28 150.973C1154.23 152.711 1153.02 154.371 1151.63 155.926C1151.55 156.032 1150.98 156.642 1151.42 156.154C1151.24 156.322 1151.06 156.52 1150.88 156.703C1150.53 157.068 1150.17 157.419 1149.77 157.769C1148.93 158.562 1148 159.308 1147.08 160.025C1145.35 161.365 1145.35 163.971 1147.08 165.281C1148.94 166.699 1151.61 166.699 1153.42 165.281L1153.45 165.327L1153.47 165.342Z" stroke="#D45835" stroke-miterlimit="10"/>
<path d="M1157.81 117.907C1150.8 113.488 1143.79 109.085 1136.78 104.681C1134.89 103.493 1131.7 104.376 1130.65 106.022C1129.41 107.988 1130.27 109.831 1132.27 111.096C1139.27 115.515 1146.29 119.919 1153.29 124.322C1155.17 125.511 1158.37 124.627 1159.42 122.981C1160.67 121.016 1159.81 119.172 1157.81 117.907Z" stroke="#D45835" stroke-miterlimit="10"/>
<path d="M1133.27 93.9545L1128.06 82.9987C1127.61 82.054 1127.08 81.2921 1126.01 80.774C1125.06 80.3017 1123.62 80.1036 1122.53 80.4083C1121.45 80.7131 1120.41 81.2464 1119.85 82.1149C1119.28 82.9835 1118.96 84.0653 1119.4 84.9948L1124.6 95.9506C1125.06 96.8953 1125.59 97.6572 1126.66 98.1753C1127.61 98.6476 1129.05 98.8457 1130.13 98.5409C1131.22 98.2362 1132.25 97.7029 1132.82 96.8344C1133.39 95.9658 1133.71 94.8687 1133.27 93.9545Z" stroke="#D45835" stroke-miterlimit="10"/>
<path d="M1064.35 327.773C1065.93 333.64 1067.55 339.491 1069.13 345.372C1069.63 347.277 1072.42 348.572 1074.66 347.978C1077.06 347.338 1078.34 345.449 1077.82 343.392C1076.23 337.525 1074.62 331.674 1073.03 325.792C1072.53 323.888 1069.75 322.592 1067.5 323.187C1065.11 323.827 1063.81 325.716 1064.35 327.773Z" stroke="#D45835" stroke-miterlimit="10"/>
<path d="M1072.3 363.079C1069.91 371.535 1071.74 380.647 1077.54 387.916C1078.82 389.531 1081.54 390.369 1083.67 389.257C1085.61 388.22 1086.66 385.904 1085.27 384.183C1084.64 383.39 1084.04 382.567 1083.48 381.729C1083.2 381.303 1082.94 380.891 1082.7 380.434C1082.64 380.312 1082.2 379.413 1082.46 380.007C1081.62 378.301 1080.99 376.518 1080.58 374.674C1080.49 374.248 1080.41 373.852 1080.36 373.44C1080.47 374.202 1080.29 372.77 1080.26 372.648C1080.16 371.749 1080.13 370.865 1080.16 369.966C1080.19 369.067 1080.26 368.183 1080.37 367.284C1080.28 368.046 1080.49 366.644 1080.52 366.492C1080.62 366.019 1080.76 365.547 1080.87 365.075C1081.41 363.185 1080.16 360.961 1077.74 360.488C1075.44 360.062 1072.8 361.052 1072.21 363.094L1072.3 363.063V363.079Z" stroke="#D45835" stroke-miterlimit="10"/>
<path d="M1108.33 424.334C1108.21 423.801 1108.12 423.252 1107.98 422.704C1107.74 421.728 1107.41 420.768 1107.06 419.824C1106.88 419.306 1106.64 418.788 1106.39 418.269C1106.31 418.071 1106.2 417.843 1106.1 417.645C1106.33 418.148 1106.12 417.751 1105.97 417.477C1105.47 416.563 1104.91 415.694 1104.31 414.826C1103.64 413.912 1102.92 413.043 1102.17 412.205C1102.56 412.632 1102.24 412.266 1102.03 412.037C1101.87 411.87 1101.7 411.687 1101.53 411.519C1101.07 411.108 1100.64 410.681 1100.18 410.285C1099.36 409.569 1098.49 408.898 1097.56 408.258C1097.29 408.091 1097.05 407.908 1096.79 407.74C1097.11 407.984 1097.01 407.908 1096.72 407.74C1096.19 407.42 1095.64 407.1 1095.07 406.796L1095.06 406.75L1095.15 406.78C1093.07 405.653 1092.36 403.565 1093.55 401.706C1094.62 400 1097.69 399.299 1099.67 400.365C1109.95 405.942 1116.49 415.191 1117.44 425.324C1117.63 427.412 1115.21 428.966 1112.94 429.042C1110.4 429.134 1108.64 427.26 1108.46 425.324C1108.43 425.004 1108.37 424.654 1108.33 424.334ZM1108.33 424.334C1108.27 423.968 1108.27 423.984 1108.33 424.334Z" stroke="#D45835" stroke-miterlimit="10"/>
<path d="M1175.34 313.298C1184.73 315.706 1194.57 316.148 1204.25 314.929C1206.58 314.624 1208.09 312.11 1207.41 310.342C1206.6 308.24 1204.38 307.447 1201.88 307.737C1201.54 307.782 1201.21 307.813 1200.89 307.859C1201.18 307.828 1201.15 307.828 1200.86 307.859C1200.29 307.904 1199.69 307.965 1199.11 308.011C1198.14 308.087 1197.14 308.133 1196.12 308.163C1193.97 308.24 1191.82 308.194 1189.67 308.072C1187.31 307.92 1186.25 307.798 1183.96 307.432C1181.82 307.081 1179.77 306.64 1177.7 306.122C1175.45 305.558 1172.7 306.792 1172.17 308.727C1171.6 310.738 1172.88 312.689 1175.31 313.314H1175.34V313.298Z" stroke="#D45835" stroke-miterlimit="10"/>
<path d="M1229.94 309.702L1249.07 292.697C1250.67 291.28 1250.89 288.826 1249.07 287.44C1247.24 286.053 1244.43 285.931 1242.73 287.44C1236.36 293.108 1230 298.792 1223.6 304.445C1221.99 305.862 1221.77 308.315 1223.6 309.702C1225.42 311.088 1228.24 311.21 1229.94 309.702Z" stroke="#D45835" stroke-miterlimit="10"/>
<path d="M1255.05 278.678C1254.1 269.947 1256.6 261.673 1262.56 254.39C1263.9 252.729 1262.94 250.276 1260.94 249.316C1258.72 248.249 1256.15 248.996 1254.81 250.657C1248.15 258.778 1244.98 268.896 1246.08 278.709C1246.29 280.72 1247.98 282.427 1250.56 282.427C1252.8 282.427 1255.25 280.72 1255.05 278.709V278.678Z" stroke="#D45835" stroke-miterlimit="10"/>
<path d="M1276.08 241.484C1277.27 230.162 1276.42 218.78 1273.67 207.626C1273.18 205.676 1270.38 204.533 1268.12 205.02C1265.65 205.584 1264.5 207.626 1264.98 209.607C1267.55 220.09 1268.22 230.818 1267.08 241.484C1266.87 243.495 1269.3 245.202 1271.56 245.202C1274.17 245.202 1275.83 243.495 1276.06 241.484H1276.08Z" stroke="#D45835" stroke-miterlimit="10"/>
<path d="M1266.87 190.85C1261.58 187.208 1256.28 183.582 1250.99 179.94C1250.07 179.3 1249.08 178.843 1247.82 178.843C1246.72 178.843 1245.41 179.239 1244.65 179.94C1243.13 181.296 1242.71 183.886 1244.65 185.197C1249.94 188.839 1255.25 192.465 1260.53 196.107C1261.46 196.747 1262.44 197.204 1263.7 197.204C1264.8 197.204 1266.11 196.808 1266.87 196.107C1268.39 194.751 1268.81 192.16 1266.87 190.85Z" stroke="#D45835" stroke-miterlimit="10"/>
<path d="M1236.87 168.451C1229.82 164.839 1222.76 161.182 1215.7 157.571C1213.72 156.55 1210.69 157.145 1209.59 158.912C1208.48 160.664 1209.09 162.904 1211.19 163.986C1218.24 167.597 1225.31 171.254 1232.36 174.866C1234.37 175.887 1237.38 175.292 1238.49 173.525C1239.59 171.773 1238.99 169.533 1236.87 168.451Z" stroke="#D45835" stroke-miterlimit="10"/>
<path d="M1160.86 437.728C1169.84 438.688 1179.22 436.89 1186.87 432.897C1188.84 431.861 1189.83 429.53 1188.49 427.823C1187.14 426.117 1184.49 425.401 1182.36 426.483C1181.43 426.955 1180.5 427.427 1179.54 427.823C1179.19 427.976 1178.83 428.128 1178.43 428.265C1178.2 428.372 1177.96 428.463 1177.68 428.54C1178.14 428.387 1178.1 428.387 1177.62 428.54C1175.76 429.134 1173.91 429.637 1171.99 429.972C1171.5 430.048 1171.07 430.139 1170.58 430.2C1170.4 430.231 1168.72 430.429 1169.77 430.322C1168.82 430.429 1167.9 430.475 1166.93 430.52C1164.89 430.597 1162.87 430.52 1160.83 430.277C1158.5 430.033 1156.25 432.166 1156.35 433.995C1156.46 436.219 1158.32 437.438 1160.83 437.713V437.743L1160.86 437.728Z" stroke="#D45835" stroke-miterlimit="10"/>
<path d="M1212.73 418.665C1218.05 411.382 1223.34 404.098 1228.67 396.83C1229.9 395.169 1229.17 392.67 1227.06 391.756C1224.94 390.841 1222.2 391.314 1220.93 393.097C1215.61 400.38 1210.32 407.664 1204.98 414.932C1203.75 416.593 1204.48 419.092 1206.6 420.006C1208.72 420.92 1211.43 420.448 1212.73 418.665Z" stroke="#D45835" stroke-miterlimit="10"/>
<path d="M1231.71 371.704C1229.56 362.988 1225.52 354.561 1219.92 346.973C1218.66 345.267 1215.91 344.611 1213.8 345.632C1211.66 346.653 1210.92 349 1212.18 350.706C1217.5 357.914 1220.99 365.304 1223.06 373.684C1223.55 375.589 1226.38 376.884 1228.59 376.29C1231.05 375.65 1232.23 373.761 1231.75 371.704H1231.71Z" stroke="#D45835" stroke-miterlimit="10"/>
<path d="M1202.88 338.729C1195.68 334.57 1188.44 330.41 1181.24 326.219C1179.3 325.107 1176.18 325.869 1175.11 327.56C1173.88 329.465 1174.66 331.446 1176.71 332.634C1183.93 336.794 1191.15 340.954 1198.37 345.144C1200.31 346.257 1203.41 345.495 1204.5 343.803C1205.73 341.899 1204.95 339.918 1202.88 338.729Z" stroke="#D45835" stroke-miterlimit="10"/>
<path d="M1228.45 119.767L1236.48 143.811C1237.1 145.701 1239.69 147.026 1242.02 146.417C1244.34 145.792 1245.82 143.842 1245.15 141.83L1237.12 117.786C1236.5 115.896 1233.91 114.571 1231.58 115.18C1229.26 115.805 1227.78 117.755 1228.45 119.767Z" stroke="#D45835" stroke-miterlimit="10"/>
<path d="M1238.93 343.24C1243.33 344.001 1247.71 344.748 1252.11 345.525C1253.31 345.723 1254.5 345.678 1255.59 345.159C1256.51 344.718 1257.41 343.819 1257.64 342.935C1258.14 341.076 1256.96 338.79 1254.5 338.348C1250.1 337.586 1245.72 336.84 1241.32 336.063C1240.12 335.865 1238.93 335.91 1237.86 336.428C1236.94 336.87 1236.03 337.769 1235.79 338.653C1235.29 340.512 1236.49 342.798 1238.93 343.24Z" stroke="#D45835" stroke-miterlimit="10"/>
<path d="M1278.21 347.903C1286.04 345.282 1293.14 341.335 1298.72 336.063C1300.27 334.6 1300.58 332.223 1298.72 330.806C1297 329.511 1294.03 329.252 1292.38 330.806C1291.15 331.964 1289.87 333.061 1288.5 334.097C1287.8 334.615 1287.09 335.118 1286.36 335.606C1286.22 335.697 1286.04 335.834 1285.88 335.926C1285.23 336.353 1286.38 335.621 1285.94 335.895C1285.55 336.124 1285.2 336.368 1284.79 336.596C1283.34 337.465 1281.78 338.257 1280.22 338.973C1279.41 339.339 1278.58 339.69 1277.73 340.04C1277.3 340.208 1276.88 340.36 1276.48 340.543C1276.3 340.619 1276.09 340.665 1275.91 340.741C1276.93 340.269 1276.09 340.665 1275.85 340.741C1274.72 341.107 1273.83 341.564 1273.16 342.448C1272.6 343.24 1272.36 344.428 1272.71 345.327C1273.41 347.064 1275.91 348.695 1278.24 347.933L1278.19 347.903H1278.21Z" stroke="#D45835" stroke-miterlimit="10"/>
<path d="M1313.19 318.082V298.38C1313.19 296.445 1311.12 294.571 1308.71 294.662C1306.28 294.754 1304.21 296.293 1304.21 298.38V318.082C1304.21 320.018 1306.28 321.892 1308.71 321.8C1311.12 321.709 1313.19 320.17 1313.19 318.082Z" stroke="#D45835" stroke-miterlimit="10"/>
<path d="M1304.6 283.387C1300.14 275.189 1291.21 268.896 1280.9 266.214C1278.65 265.62 1275.9 266.915 1275.35 268.82C1274.78 270.846 1276.11 272.766 1278.5 273.406C1279.1 273.558 1279.7 273.726 1280.3 273.909C1280.52 273.985 1280.78 274.061 1281.04 274.153C1281.57 274.32 1280.2 273.848 1280.98 274.153C1282.03 274.549 1283.08 274.976 1284.07 275.448C1285.05 275.92 1286.04 276.438 1286.99 276.987C1287.22 277.139 1287.56 277.261 1287.77 277.459C1287.11 276.819 1287.59 277.337 1287.87 277.505C1288.32 277.794 1288.76 278.13 1289.18 278.45C1290.05 279.09 1290.84 279.76 1291.63 280.461C1292.02 280.811 1292.41 281.177 1292.77 281.558C1292.98 281.756 1293.19 281.954 1293.36 282.183C1293.11 281.832 1292.98 281.756 1293.33 282.183C1294.74 283.768 1295.9 285.459 1296.89 287.242C1297.88 289.024 1301.14 289.603 1303.02 288.583C1305.24 287.394 1305.66 285.413 1304.64 283.508L1304.6 283.432V283.387Z" stroke="#D45835" stroke-miterlimit="10"/>
<path d="M636.746 229.263C637.312 227.358 637.975 225.453 638.783 223.594C638.994 223.122 639.204 222.68 639.414 222.208C639.527 221.979 639.624 221.766 639.738 221.507C639.835 221.339 640.013 221.004 639.802 221.385C640.304 220.425 640.854 219.48 641.42 218.536C642.503 216.783 643.684 215.062 645.01 213.401C645.673 212.578 646.352 211.77 647.048 210.978C647.112 210.932 647.581 210.384 647.371 210.612C647.161 210.841 647.662 210.323 647.694 210.262C648.115 209.82 648.535 209.393 648.972 208.967C650.492 207.473 650.848 205.157 648.972 203.71C647.29 202.445 644.25 202.125 642.632 203.71C635.662 210.551 630.616 218.551 628.077 227.282C627.544 229.171 628.789 231.396 631.215 231.868C633.641 232.341 636.147 231.305 636.746 229.263Z" stroke="#D45835" stroke-miterlimit="10"/>
<path d="M661.052 191.139C660.664 187.345 660.81 183.155 661.537 179.787C662.346 176.039 663.785 172.077 665.581 168.908C666.599 167.095 666.211 164.9 663.963 163.834C662.023 162.889 658.853 163.331 657.834 165.175C653.289 173.281 651.171 182.225 652.093 191.17C652.303 193.105 654.001 194.979 656.572 194.888C658.837 194.812 661.262 193.257 661.052 191.17V191.139Z" stroke="#D45835" stroke-miterlimit="10"/>
<path d="M670.66 143.858C672.811 135.904 674.962 127.95 677.097 119.996C677.598 118.106 676.401 115.882 673.959 115.409C671.679 114.982 668.994 115.973 668.428 118.015C666.277 125.969 664.126 133.923 661.991 141.877C661.49 143.766 662.687 145.991 665.129 146.463C667.409 146.89 670.094 145.899 670.66 143.858Z" stroke="#D45835" stroke-miterlimit="10"/>
<path d="M689.048 102.076C695.21 95.509 701.339 88.9417 707.501 82.3743C708.277 81.5515 708.811 80.8201 708.811 79.7535C708.811 78.8392 708.326 77.7421 707.501 77.1326C705.884 75.9136 702.681 75.5022 701.161 77.1326C694.999 83.7 688.87 90.2673 682.708 96.8347C681.932 97.6575 681.398 98.3889 681.398 99.4556C681.398 100.37 681.884 101.467 682.708 102.076C684.326 103.295 687.528 103.707 689.048 102.076Z" stroke="#D45835" stroke-miterlimit="10"/>
<path d="M730.433 66.4961C736.028 60.8734 741.591 55.2203 747.171 49.5977C748.659 48.0892 749.079 45.7883 747.171 44.3408C745.521 43.0761 742.416 42.7256 740.831 44.3408C735.236 49.9634 729.672 55.6165 724.093 61.2391C722.605 62.7476 722.185 65.0485 724.093 66.4961C725.742 67.7608 728.848 68.1112 730.433 66.4961Z" stroke="#D45835" stroke-miterlimit="10"/>
<path d="M668.589 209.881C675.107 211.298 682.158 210.521 687.996 207.672C690.034 206.681 690.923 204.274 689.613 202.598C688.303 200.906 685.635 200.221 683.484 201.257C682.853 201.562 682.223 201.821 681.608 202.08C680.735 202.43 682.594 201.775 681.705 202.049C681.382 202.156 681.042 202.278 680.718 202.354C679.457 202.704 678.147 202.948 676.837 203.116L678.034 202.994C676.174 203.192 674.33 203.192 672.438 202.994L673.635 203.116C672.762 203.024 671.872 202.872 671.031 202.689C668.767 202.186 666.066 203.314 665.5 205.295C664.934 207.276 666.212 209.333 668.638 209.881H668.605H668.589Z" stroke="#D45835" stroke-miterlimit="10"/>
<path d="M686.362 180.839C693.543 174.165 702.486 170.005 713.16 168.374C715.457 168.024 716.993 165.601 716.298 163.788C715.489 161.731 713.241 160.817 710.767 161.182C699.009 162.996 687.98 168.176 680.023 175.551C678.405 177.045 678.228 179.345 680.023 180.808C681.672 182.164 684.745 182.317 686.362 180.808V180.839Z" stroke="#D45835" stroke-miterlimit="10"/>
<path d="M710.783 135.659C710.54 135.644 710.282 135.613 710.039 135.613C709.586 135.583 709.15 135.583 708.697 135.583C708.195 135.583 707.71 135.598 707.209 135.629C707.112 135.629 706.158 135.735 706.902 135.629C707.662 135.522 706.756 135.674 706.61 135.674C705.624 135.827 704.67 136.025 703.716 136.299C703.489 136.345 703.247 136.421 703.004 136.497C702.713 136.604 702.114 136.878 703.101 136.451C702.713 136.619 702.26 136.756 701.872 136.924C700.982 137.32 700.109 137.747 699.3 138.219C699.123 138.31 698.815 138.432 698.702 138.585C698.945 138.295 699.3 138.173 698.799 138.539C698.476 138.783 698.136 139.042 697.813 139.286C697.457 139.59 697.085 139.88 696.761 140.185C696.6 140.337 696.422 140.505 696.276 140.657C695.84 141.099 696.228 140.886 696.341 140.581C696.195 140.901 695.743 141.297 695.5 141.602C695.241 141.983 694.999 142.333 694.756 142.699L694.74 142.653L694.772 142.623C693.608 144.466 690.713 144.862 688.643 143.963C686.427 143.004 685.942 140.626 687.026 138.889C689.322 135.248 693.187 132.185 697.635 130.372C702.567 128.391 707.791 127.72 713.176 128.467C715.651 128.817 716.799 131.271 716.314 133.053C715.716 135.156 713.079 135.979 710.783 135.659ZM710.783 135.659C709.796 135.537 711.672 135.705 710.783 135.659Z" stroke="#D45835" stroke-miterlimit="10"/>
<path d="M715.052 114.936C715.618 114.342 716.281 113.793 716.993 113.275C717.268 113.108 717.914 112.773 716.815 113.367C716.993 113.275 717.203 113.138 717.381 113.047C717.769 112.818 718.157 112.62 718.578 112.453C718.998 112.285 719.418 112.056 719.839 111.95L719.176 112.178C719.176 112.178 719.483 112.087 719.596 112.026C719.807 111.95 720.049 111.904 720.259 111.828C721.149 111.599 722.055 111.432 722.976 111.325L721.78 111.447C723.09 111.325 724.383 111.294 725.693 111.447L724.497 111.325C725.192 111.401 725.871 111.523 726.534 111.675C728.782 112.194 731.532 111.035 732.065 109.07C732.599 107.104 731.354 105.062 728.928 104.483C721.812 102.822 713.402 104.803 708.712 109.618C707.936 110.411 707.402 111.173 707.402 112.239C707.402 113.153 707.888 114.251 708.712 114.86C710.362 116.094 713.467 116.475 715.052 114.86V114.906V114.936Z" stroke="#D45835" stroke-miterlimit="10"/>
<path d="M679.084 77.3459C679.052 68.4472 669.817 60.737 659.143 60.4628C656.782 60.4171 654.534 62.2151 654.664 64.1807C654.777 66.2378 656.637 67.8225 659.143 67.8987C659.645 67.8987 660.194 67.9444 660.696 68.0053L659.499 67.8834C660.34 67.9901 661.181 68.1272 661.973 68.3558C662.297 68.4624 662.75 68.6758 663.106 68.7062L662.442 68.4777C662.442 68.4777 662.717 68.5843 662.831 68.6301C663.009 68.7062 663.154 68.752 663.332 68.8281C664.076 69.1481 664.804 69.5443 665.483 69.9405C666.081 70.2909 664.787 69.4681 665.176 69.7424C665.321 69.8491 665.483 69.9405 665.596 70.0471C665.92 70.2909 666.259 70.55 666.583 70.7938C666.89 71.0376 667.149 71.2966 667.424 71.5404C667.537 71.6623 667.666 71.7842 667.779 71.8909C668.345 72.4394 667.116 71.1442 667.634 71.7233C668.135 72.2871 668.523 72.8356 668.911 73.4299C669.122 73.7499 669.607 74.9231 669.122 73.7041C669.235 74.0089 669.397 74.2679 669.51 74.5727C669.785 75.2736 669.995 75.9898 670.108 76.7059L669.963 75.7155C670.06 76.264 670.076 76.8126 670.076 77.3764C670.076 79.3115 672.146 81.1858 674.556 81.0943C676.965 81.0029 679.035 79.4639 679.035 77.3764L679.084 77.3459Z" stroke="#D45835" stroke-miterlimit="10"/>
<path d="M643.862 95.478C643.312 95.1581 642.778 94.8381 642.212 94.5181C640.191 93.36 638.056 92.3696 635.792 91.5011C633.512 90.6325 633.123 88.0574 634.175 86.427C635.371 84.5375 638.185 84.2632 640.304 85.0861C650.202 88.8954 658.547 95.6609 663.414 103.767V103.737C664.514 105.596 663.948 107.668 661.797 108.811C659.857 109.847 656.719 109.207 655.668 107.47C654.536 105.611 653.242 103.813 651.754 102.122C651.576 101.923 651.431 101.725 651.253 101.558C652.013 102.198 651.285 101.604 651.14 101.436C650.751 101.04 650.363 100.674 649.943 100.278C649.134 99.516 648.326 98.7998 647.404 98.0532C646.466 97.3065 645.511 96.5904 644.525 95.9199C644.315 95.7828 644.072 95.6304 643.862 95.478ZM643.862 95.478C643.474 95.2038 644.557 95.9047 643.862 95.478Z" stroke="#D45835" stroke-miterlimit="10"/>
<path d="M652.708 135.507C647.921 124.079 637.668 114.372 624.39 109.268C622.271 108.445 619.457 108.719 618.261 110.609C617.209 112.239 617.597 114.814 619.878 115.683C622.773 116.795 625.554 118.136 628.158 119.69C628.514 119.919 628.87 120.117 629.209 120.33C628.579 119.934 629.662 120.65 629.662 120.65C630.228 121.016 630.762 121.412 631.312 121.839C632.573 122.753 633.77 123.743 634.87 124.764C635.403 125.267 635.953 125.755 636.455 126.273C636.697 126.501 636.907 126.745 637.15 126.974C637.269 127.106 637.258 127.091 637.118 126.928C637.231 127.08 637.393 127.233 637.506 127.37C638.46 128.436 639.366 129.549 640.174 130.692C640.983 131.834 641.759 132.992 642.438 134.181C642.584 134.455 642.746 134.73 642.891 135.004C643.49 136.07 642.584 134.364 643.134 135.446C643.457 136.116 643.765 136.787 644.056 137.472C644.832 139.301 647.161 140.718 649.587 140.078C651.77 139.484 653.533 137.472 652.724 135.491L652.708 135.507Z" stroke="#D45835" stroke-miterlimit="10"/>
<path d="M631.086 167.917C630.988 167.597 630.94 167.246 630.843 166.926C630.584 165.845 630.196 164.747 629.711 163.711C629.646 163.635 629.258 162.782 629.468 163.209C629.679 163.635 629.226 162.812 629.193 162.736C628.935 162.233 628.627 161.746 628.272 161.243C627.9 160.755 627.576 160.283 627.188 159.811C626.978 159.521 626.735 159.247 626.493 158.972C626.007 158.439 626.622 159.125 626.315 158.805C625.441 157.936 624.52 157.114 623.533 156.352C623.29 156.169 623.064 155.971 622.789 155.803C622.805 155.803 621.851 155.178 622.304 155.453C622.757 155.712 621.9 155.194 621.803 155.148C621.479 154.95 621.107 154.752 620.784 154.584C619.652 153.99 618.455 153.472 617.193 153.03C614.881 152.222 614.557 149.54 615.576 147.956C616.805 146.021 619.555 145.853 621.705 146.615C634.66 151.217 641.808 163.33 639.738 174.637L639.835 174.606C639.447 176.663 636.455 177.608 634.304 177.212C631.732 176.709 630.811 174.53 631.166 172.625C631.312 171.726 631.134 173.098 631.199 172.275C631.199 172.001 631.263 171.711 631.263 171.437V169.745C631.231 169.136 631.183 168.542 631.086 167.917ZM631.086 167.917C631.15 168.283 631.183 168.267 631.086 167.917Z" stroke="#D45835" stroke-miterlimit="10"/>
</svg>
