<svg width="76" height="76" viewBox="0 0 76 76" fill="none" xmlns="http://www.w3.org/2000/svg">
<path d="M67.1786 0H8.06143C5.9234 0 3.87295 0.849327 2.36114 2.36114C0.849326 3.87295 0 5.9234 0 8.06143L0 67.1786C0 69.3166 0.849326 71.367 2.36114 72.8789C3.87295 74.3907 5.9234 75.24 8.06143 75.24H31.1121V49.6601H20.5314V37.62H31.1121V28.4434C31.1121 18.0055 37.3261 12.2399 46.8436 12.2399C51.4017 12.2399 56.168 13.0528 56.168 13.0528V23.2975H50.9163C45.7419 23.2975 44.1279 26.5087 44.1279 29.8021V37.62H55.6793L53.8319 49.6601H44.1279V75.24H67.1786C69.3166 75.24 71.367 74.3907 72.8789 72.8789C74.3907 71.367 75.24 69.3166 75.24 67.1786V8.06143C75.24 5.9234 74.3907 3.87295 72.8789 2.36114C71.367 0.849327 69.3166 0 67.1786 0Z" fill="#3D5C6D"/>
</svg>
