<svg width="75" height="75" viewBox="0 0 75 75" fill="none" xmlns="http://www.w3.org/2000/svg">
<path fill-rule="evenodd" clip-rule="evenodd" d="M54.0086 0C65.6018 0 75 9.40391 75 20.9914V54.0086C75 65.6018 65.5961 75 54.0086 75H20.9914C9.39818 75 0 65.5961 0 54.0086V20.9914C0 9.39818 9.40391 0 20.9914 0L54.0086 0ZM37.5 18C26.7304 18 18 26.7304 18 37.5C18 48.2696 26.7304 57 37.5 57C48.2696 57 57 48.2696 57 37.5C57 26.7304 48.2696 18 37.5 18ZM37.5 24C44.9558 24 51 30.0442 51 37.5C51 44.9558 44.9558 51 37.5 51C30.0442 51 24 44.9558 24 37.5C24 30.0442 30.0442 24 37.5 24ZM59.25 10.5C56.3505 10.5 54 12.8505 54 15.75C54 18.6495 56.3505 21 59.25 21C62.1495 21 64.5 18.6495 64.5 15.75C64.5 12.8505 62.1495 10.5 59.25 10.5Z" fill="#3D5C6D"/>
</svg>
