<svg width="75" height="75" viewBox="0 0 75 75" fill="none" xmlns="http://www.w3.org/2000/svg">
<path fill-rule="evenodd" clip-rule="evenodd" d="M0 6.26561C0 4.60388 0.660132 3.01019 1.83516 1.83516C3.01019 0.660132 4.60388 0 6.26561 0H68.7341C69.5571 0 70.3719 0.162075 71.1319 0.476953C71.8921 0.791831 72.5828 1.25334 73.1648 1.83516C73.7464 2.41698 74.208 3.1077 74.523 3.86786C74.8377 4.62805 75 5.44279 75 6.26561V68.7341C75 69.5571 74.8377 70.3719 74.523 71.1319C74.208 71.8921 73.7464 72.5828 73.1648 73.1648C72.5828 73.7464 71.8921 74.208 71.1319 74.523C70.3719 74.8377 69.5571 75 68.7341 75H6.26561C4.60388 75 3.01019 74.3396 1.83516 73.1648C0.660132 71.9896 0 70.3962 0 68.7341V6.26561ZM29.6874 28.5937H39.8439V33.697C41.3078 30.7623 45.0593 28.1249 50.6951 28.1249C61.4984 28.1249 64.0625 33.9656 64.0625 44.6826V64.5312H53.1249V47.1233C53.1249 41.0204 51.661 37.5781 47.9374 37.5781C42.7734 37.5781 40.6249 41.289 40.6249 47.1233V64.5312H29.6874V28.5937ZM10.9375 64.0625H21.875V28.1249H10.9375V64.0625ZM23.4375 16.4062C23.4375 17.3296 23.2556 18.2439 22.9023 19.097C22.5489 19.95 22.031 20.7251 21.378 21.378C20.7251 22.031 19.95 22.5489 19.097 22.9023C18.2439 23.2556 17.3296 23.4375 16.4062 23.4375C15.4829 23.4375 14.5686 23.2556 13.7155 22.9023C12.8624 22.5489 12.0873 22.031 11.4344 21.378C10.7815 20.7251 10.2636 19.95 9.9102 19.097C9.55687 18.2439 9.37498 17.3296 9.37498 16.4062C9.37498 14.5414 10.1158 12.753 11.4344 11.4344C12.753 10.1158 14.5414 9.37498 16.4062 9.37498C18.271 9.37498 20.0595 10.1158 21.378 11.4344C22.6967 12.753 23.4375 14.5414 23.4375 16.4062Z" fill="#3D5C6D"/>
</svg>
