<svg width="162" height="84" viewBox="0 0 162 84" fill="none" xmlns="http://www.w3.org/2000/svg">
<g clip-path="url(#clip0_251_146)">
<path d="M150.521 16.0103C150.151 15.3203 149.451 14.1003 148.101 13.4803C147.431 13.1803 146.811 13.0903 146.371 13.0703C134.941 13.2103 123.501 13.3503 112.071 13.4903C111.631 13.4903 109.291 13.5403 107.401 15.4303C106.201 16.6303 105.461 18.2803 105.461 20.1003V57.1103C105.461 60.7503 108.431 63.7203 112.071 63.7203H153.631C157.271 63.7203 160.241 60.7503 160.241 57.1103C160.251 51.0303 160.271 44.9503 160.281 38.8703C160.281 38.6103 160.281 38.2903 160.241 37.9403C160.191 37.5803 160.111 37.2603 160.031 37.0103C155.281 26.0103 151.591 18.0203 150.521 16.0103Z" fill="#FFEAF1" stroke="#3E5C6D" stroke-width="4" stroke-miterlimit="10"/>
<path d="M155.711 60.04H43.3405C40.8387 60.04 38.8105 62.0682 38.8105 64.57C38.8105 67.0719 40.8387 69.1 43.3405 69.1H155.711C158.212 69.1 160.241 67.0719 160.241 64.57C160.241 62.0682 158.212 60.04 155.711 60.04Z" fill="#FFEAF1" stroke="#3E5C6D" stroke-width="4" stroke-miterlimit="10"/>
<path d="M102.781 1H46.2905C42.1595 1 38.8105 4.34891 38.8105 8.48V55.07C38.8105 59.2011 42.1595 62.55 46.2905 62.55H102.781C106.912 62.55 110.261 59.2011 110.261 55.07V8.48C110.261 4.34891 106.912 1 102.781 1Z" fill="#FFEAF1" stroke="#3E5C6D" stroke-width="4" stroke-miterlimit="10"/>
<path d="M72.6657 81.173C79.3397 78.4085 82.509 70.7571 79.7445 64.0831C76.98 57.4091 69.3287 54.2398 62.6547 57.0043C55.9807 59.7687 52.8114 67.4201 55.5758 74.0941C58.3403 80.7681 65.9917 83.9374 72.6657 81.173Z" fill="#FFEAF1" stroke="#3E5C6D" stroke-width="4" stroke-miterlimit="10"/>
<path d="M139.963 81.1778C146.637 78.4134 149.806 70.762 147.041 64.088C144.277 57.414 136.626 54.2447 129.952 57.0091C123.278 59.7736 120.108 67.425 122.873 74.099C125.637 80.773 133.289 83.9423 139.963 81.1778Z" fill="#FFEAF1" stroke="#3E5C6D" stroke-width="4" stroke-miterlimit="10"/>
<path d="M67.6591 75.6298C71.2711 75.6298 74.1991 72.7017 74.1991 69.0898C74.1991 65.4779 71.2711 62.5498 67.6591 62.5498C64.0472 62.5498 61.1191 65.4779 61.1191 69.0898C61.1191 72.7017 64.0472 75.6298 67.6591 75.6298Z" fill="#FFEAF1" stroke="#3E5C6D" stroke-width="4" stroke-miterlimit="10"/>
<path d="M134.96 75.6298C138.572 75.6298 141.5 72.7017 141.5 69.0898C141.5 65.4779 138.572 62.5498 134.96 62.5498C131.348 62.5498 128.42 65.4779 128.42 69.0898C128.42 72.7017 131.348 75.6298 134.96 75.6298Z" fill="#FFEAF1" stroke="#3E5C6D" stroke-width="4" stroke-miterlimit="10"/>
<path d="M122.879 23.7199C129.059 23.6999 135.249 23.6899 141.429 23.6699C141.689 23.6699 142.589 23.6699 143.429 24.2999C144.209 24.8799 144.479 25.6499 144.559 25.9199C144.819 26.4099 148.689 33.8799 149.569 36.6899C149.739 37.2399 149.919 38.0199 149.529 38.6599C149.139 39.3099 148.349 39.4999 147.949 39.5699C139.469 39.5699 130.989 39.5699 122.519 39.5699C122.409 39.5599 122.109 39.5099 121.829 39.2599C121.559 39.0199 121.479 38.7299 121.449 38.6199C121.529 34.1999 121.609 29.7899 121.689 25.3699C121.679 25.2699 121.609 24.7599 121.959 24.2799C122.289 23.8299 122.769 23.7299 122.869 23.7099L122.879 23.7199Z" fill="#FFEAF1" stroke="#3E5C6D" stroke-width="4" stroke-miterlimit="10"/>
<path d="M30.4299 26.8203H7.66992" stroke="#3E5C6D" stroke-width="4" stroke-miterlimit="10"/>
<path d="M30.43 33.6904H0" stroke="#3E5C6D" stroke-width="4" stroke-miterlimit="10"/>
<path d="M30.4302 40.1602H12.4102" stroke="#3E5C6D" stroke-width="4" stroke-miterlimit="10"/>
</g>
<defs>
<clipPath id="clip0_251_146">
<rect width="161.29" height="83.18" fill="white"/>
</clipPath>
</defs>
</svg>
