<svg width="380" height="602" viewBox="0 0 380 602" fill="none" xmlns="http://www.w3.org/2000/svg">
<g clip-path="url(#clip0_193_175)">
<path d="M401.49 396.853L389.251 374.904C388.284 373.155 385.605 372.531 383.965 373.673C382.194 374.895 381.685 377.08 382.734 378.959L394.973 400.908C395.94 402.657 398.619 403.281 400.259 402.14C402.03 400.917 402.539 398.732 401.49 396.853Z" fill="#3E5C6D"/>
<path d="M380.451 357.175C374.967 346.423 364.538 338.476 352.77 335.882C347.947 334.815 346.207 342.286 351.03 343.354C361.028 345.572 369.333 352.188 373.933 361.23C374.876 363.084 377.569 363.488 379.22 362.461C381.11 361.285 381.394 359.029 380.451 357.175Z" fill="#3E5C6D"/>
<path d="M339.086 323.239C330.936 316.677 322.821 310.124 314.67 303.562C313.056 302.276 310.716 302.195 309.232 303.781C307.894 305.216 307.824 307.912 309.451 309.22C317.602 315.782 325.717 322.335 333.867 328.897C335.481 330.183 337.822 330.264 339.306 328.678C340.643 327.243 340.714 324.547 339.086 323.239Z" fill="#3E5C6D"/>
<path d="M301.324 294.507C293.869 289.984 287.676 283.711 283.094 276.346C281.999 274.586 279.567 274.019 277.808 275.114C276.048 276.209 275.481 278.641 276.576 280.401C281.889 288.939 289.14 296.09 297.73 301.324C299.507 302.388 301.985 301.479 302.913 299.726C303.94 297.792 303.071 295.62 301.316 294.543L301.324 294.507Z" fill="#3E5C6D"/>
<path d="M269.852 259.421C263.994 252.91 260.105 244.48 259.038 235.742C258.79 233.696 257.305 231.938 255.094 232.018C253.168 232.071 251.109 233.894 251.37 235.962C252.709 246.881 257.286 256.902 264.655 265.065C266.041 266.614 268.778 266.267 270.094 264.846C271.608 263.211 271.273 260.978 269.874 259.407L269.852 259.421Z" fill="#3E5C6D"/>
<path d="M250.106 213.151C249.633 212.39 249.217 211.625 248.809 210.824C248.687 210.628 248.622 210.427 248.523 210.218C248.69 210.536 248.687 210.628 248.536 210.24C248.371 209.83 248.207 209.42 248.042 209.01C247.4 207.3 246.959 205.525 246.632 203.74C246.685 204.31 246.522 203.176 246.632 203.74C246.611 203.512 246.568 203.298 246.546 203.07C246.482 202.628 246.453 202.194 246.424 201.76C246.353 200.87 246.352 199.996 246.373 199.11C246.379 198.684 246.393 198.223 246.421 197.783C246.436 197.564 246.45 197.344 246.464 197.124C246.367 197.696 246.503 196.558 246.464 197.124C246.606 196.192 246.749 195.259 246.941 194.356C247.379 192.396 246.122 190.134 244.075 189.75C242.029 189.366 239.941 190.514 239.47 192.615C237.595 200.984 239.09 209.878 243.567 217.219C244.621 218.914 247.147 219.632 248.853 218.451C250.559 217.269 251.198 215.003 250.084 213.164L250.106 213.151Z" fill="#3E5C6D"/>
<path d="M267.482 136.312C272.946 143.641 279.263 150.259 286.3 156.097C289.912 159.093 293.709 161.854 297.656 164.371C301.331 166.695 305.316 169.37 309.61 170.315C313.27 171.111 317.328 170.515 320.035 167.746C322.889 164.825 323.107 160.38 321.631 156.748C319.985 152.649 316.395 149.398 313.323 146.397C310.25 143.396 306.693 140.245 303.159 137.471C294.713 130.822 285.397 125.438 275.563 121.159C271.024 119.191 268.636 126.493 273.14 128.453C281.846 132.227 290.079 137.081 297.615 142.849C301.366 145.729 304.932 148.845 308.312 152.196C310.047 153.92 316.576 159.23 314.706 162.232C312.837 165.233 305.993 160.48 304.216 159.416C300.188 157.01 296.331 154.347 292.645 151.426C285.302 145.628 278.863 138.815 273.269 131.325C270.313 127.348 264.545 132.414 267.474 136.347L267.482 136.312Z" fill="#3E5C6D"/>
<path d="M253.965 150.478C253.528 159.609 254.229 168.727 255.962 177.713C256.862 182.307 258.032 186.853 259.504 191.301C260.865 195.427 262.247 200.022 264.971 203.48C267.279 206.414 270.798 208.534 274.666 208.117C278.727 207.669 281.707 204.369 282.875 200.629C284.207 196.425 283.498 191.652 283.03 187.363C282.561 183.074 281.806 178.421 280.844 174.017C278.533 163.521 274.767 153.448 269.842 143.885C267.594 139.497 261.117 143.617 263.351 147.983C267.701 156.427 270.962 165.398 273.121 174.633C274.204 179.232 274.987 183.929 275.449 188.644C275.699 191.08 277.364 199.326 274.034 200.464C270.704 201.602 268.406 193.598 267.716 191.617C266.144 187.201 264.837 182.679 263.838 178.118C261.838 168.995 261.182 159.609 261.624 150.293C261.865 145.352 254.175 145.585 253.943 150.491L253.965 150.478Z" fill="#3E5C6D"/>
<path d="M234.536 152.862C228.387 159.64 223.167 167.137 218.824 175.173C216.6 179.299 214.628 183.54 212.934 187.938C211.358 191.992 209.53 196.415 209.434 200.814C209.358 204.568 210.728 208.417 213.971 210.528C217.386 212.773 221.795 212.11 225.065 209.955C228.747 207.543 231.257 203.39 233.599 199.793C235.942 196.196 238.329 192.089 240.379 188.071C245.267 178.491 248.719 168.297 250.994 157.811C252.026 152.98 244.402 152.058 243.377 156.854C241.381 166.142 238.209 175.137 234.014 183.653C231.928 187.905 229.563 191.998 226.932 195.955C225.569 197.978 221.643 205.424 218.345 204.191C215.046 202.958 218.368 195.316 219.069 193.343C220.657 188.92 222.51 184.633 224.637 180.447C228.882 172.11 234.306 164.456 240.58 157.539C243.904 153.874 237.825 149.188 234.508 152.818L234.536 152.862Z" fill="#3E5C6D"/>
<path d="M217.996 142.358C208.951 143.706 200.148 146.17 191.689 149.624C187.36 151.383 183.127 153.444 179.043 155.744C175.255 157.889 171.017 160.134 168.157 163.481C165.71 166.329 164.346 170.191 165.494 173.877C166.706 177.763 170.54 180.05 174.431 180.492C178.818 180.957 183.37 179.36 187.479 178.07C191.588 176.779 196.02 175.137 200.16 173.314C210.009 168.995 219.147 163.34 227.558 156.661C231.432 153.588 226.111 148.038 222.258 151.098C214.809 156.998 206.687 161.961 198.008 165.884C193.686 167.849 189.267 169.514 184.73 170.89C182.393 171.59 174.629 174.853 172.851 171.801C171.073 168.749 178.498 164.943 180.285 163.891C184.301 161.483 188.48 159.335 192.764 157.454C201.345 153.712 210.376 151.228 219.636 149.837C224.544 149.104 222.812 141.622 217.939 142.364L217.996 142.358Z" fill="#3E5C6D"/>
<path d="M211.851 123.761C203.99 119.068 195.649 115.397 186.894 112.707C182.421 111.331 177.848 110.229 173.244 109.416C168.958 108.678 164.259 107.713 159.918 108.485C156.22 109.128 152.717 111.247 151.27 114.83C149.738 118.616 151.253 122.796 153.998 125.609C157.073 128.759 161.637 130.38 165.639 132.018C169.642 133.657 174.103 135.16 178.446 136.376C188.784 139.287 199.468 140.717 210.205 140.877C215.13 140.947 214.555 133.289 209.629 133.219C200.134 133.069 190.677 131.72 181.509 129.287C176.925 128.071 172.45 126.545 168.076 124.746C165.805 123.808 157.744 121.41 158.315 117.921C158.886 114.431 167.017 116.214 169.08 116.527C173.73 117.22 178.315 118.196 182.812 119.466C191.806 122.007 200.39 125.828 208.411 130.632C212.67 133.166 216.074 126.286 211.851 123.761Z" fill="#3E5C6D"/>
<path d="M218.929 105.494C215.828 96.8763 211.703 88.7444 206.66 81.1231C204.078 77.2147 201.235 73.4685 198.18 69.9145C195.344 66.6158 192.309 62.8991 188.464 60.7402C185.213 58.9053 181.135 58.3082 177.747 60.1754C174.171 62.1289 172.676 66.3136 173.007 70.2362C173.394 74.6364 175.884 78.7833 177.937 82.5685C179.991 86.3537 182.491 90.3732 185.088 94.0619C191.229 102.868 198.571 110.746 206.781 117.693C210.55 120.894 214.951 114.599 211.195 111.421C203.947 105.292 197.509 98.2376 191.965 90.5367C189.203 86.6795 186.681 82.6735 184.463 78.4784C183.309 76.3333 178.601 69.3474 181.245 67.0095C183.889 64.6716 189.072 71.2109 190.458 72.7598C193.608 76.2246 196.538 79.9167 199.193 83.7493C204.54 91.4227 208.735 99.8125 211.887 108.61C213.551 113.27 220.566 110.111 218.894 105.486L218.929 105.494Z" fill="#3E5C6D"/>
<path d="M235.98 95.8495C239.049 87.2199 241.012 78.3141 241.958 69.2272C242.431 64.563 242.628 59.8901 242.513 55.2003C242.394 50.8441 242.431 46.0597 240.807 41.9472C239.447 38.4536 236.695 35.4345 232.891 34.697C228.867 33.9454 225.068 36.2185 222.843 39.4713C220.343 43.106 219.639 47.8836 218.838 52.1186C218.038 56.3535 217.407 61.0553 217.054 65.5245C216.213 76.2336 216.904 86.9839 218.83 97.5387C219.707 102.387 227.113 100.342 226.236 95.4928C224.527 86.159 224.018 76.6215 224.628 67.1405C224.934 62.4001 225.543 57.7118 226.455 53.0756C226.921 50.6762 227.717 42.3159 231.243 42.1713C234.769 42.0268 234.627 50.3722 234.718 52.4555C234.947 57.1347 234.878 61.8187 234.51 66.5075C233.77 75.8281 231.693 84.9859 228.548 93.7835C226.889 98.4316 234.295 100.454 235.953 95.806L235.98 95.8495Z" fill="#3E5C6D"/>
<path d="M255.258 99.2265C263.095 94.5316 270.267 88.8643 276.781 82.4307C280.116 79.1205 283.229 75.6472 286.114 71.9536C288.792 68.5091 291.84 64.8349 293.208 60.6391C294.37 57.083 294.172 52.987 291.689 50.0119C289.075 46.8764 284.672 46.2407 280.889 47.3286C276.66 48.5728 273.066 51.8038 269.762 54.5825C266.458 57.3611 262.999 60.5679 259.865 63.8134C252.415 71.5524 246.14 80.3081 240.924 89.7008C238.523 94.0273 245.547 97.1313 247.948 92.8048C252.576 84.5012 258.192 76.8182 264.681 69.8584C267.921 66.3961 271.366 63.1675 275.026 60.1374C276.914 58.5709 282.839 52.5945 285.647 54.7349C288.455 56.8754 283.059 63.2163 281.813 64.8954C279.025 68.6488 275.994 72.2525 272.721 75.6144C266.247 82.3545 258.818 88.0918 250.82 92.9165C246.587 95.46 251.054 101.721 255.266 99.1912L255.258 99.2265Z" fill="#3E5C6D"/>
<path d="M268.04 114.056C277.094 115.385 286.226 115.581 295.34 114.732C300.012 114.297 304.643 113.555 309.204 112.555C313.459 111.596 318.153 110.665 321.876 108.318C325.021 106.301 327.461 103.006 327.433 99.1351C327.398 95.0584 324.413 91.7622 320.798 90.214C316.742 88.4887 311.914 88.72 307.596 88.7544C303.278 88.7888 298.56 89.1017 294.092 89.6213C283.431 90.8901 273.013 93.6647 263.048 97.6039C258.447 99.4115 261.924 106.259 266.503 104.465C275.339 100.987 284.573 98.5872 293.984 97.343C298.683 96.7099 303.4 96.397 308.136 96.4042C310.572 96.3957 318.962 95.5453 319.764 98.9645C320.565 102.384 312.374 103.894 310.363 104.391C305.826 105.526 301.205 106.382 296.544 106.931C287.258 108.037 277.866 107.763 268.615 106.406C263.71 105.691 263.206 113.357 268.076 114.064L268.04 114.056Z" fill="#3E5C6D"/>
<path d="M368.04 338.827L360.245 323.245C359.342 321.456 356.569 320.921 354.958 322.014C353.1 323.29 352.765 325.367 353.727 327.3L361.523 342.882C362.425 344.672 365.198 345.206 366.809 344.114C368.667 342.838 369.002 340.761 368.04 338.827Z" fill="#3E5C6D"/>
<path d="M351.462 309.272C345.13 302.242 342.195 291.954 343.964 282.445C344.347 280.398 343.177 278.324 341.098 277.839C339.16 277.388 336.876 278.658 336.492 280.705C334.202 293.008 337.873 305.642 346.265 314.916C347.651 316.465 350.366 316.132 351.704 314.697C353.218 313.062 352.87 310.807 351.484 309.259L351.462 309.272Z" fill="#3E5C6D"/>
<path d="M336.475 259.56C331.744 240.233 334.574 219.546 344.146 202.14C346.525 197.827 339.73 194.219 337.364 198.554C326.807 217.718 323.91 240.526 329.115 261.728C330.299 266.536 337.645 264.347 336.475 259.56Z" fill="#3E5C6D"/>
<path d="M343.451 185.184C348.556 168.687 346.786 150.682 339.012 135.328C338.069 133.473 335.377 133.069 333.726 134.096C331.835 135.272 331.552 137.528 332.494 139.382C339.38 152.969 340.468 168.958 335.979 183.443C334.524 188.176 342.004 189.881 343.451 185.184Z" fill="#3E5C6D"/>
<path d="M389.004 218.833C376.288 195.342 363.594 171.838 350.864 148.326C348.516 143.97 342.012 148.047 344.347 152.38C357.063 175.871 369.757 199.375 382.486 222.888C384.834 227.243 391.338 223.166 389.004 218.833Z" fill="#3E5C6D"/>
<path d="M411.588 300.374C410.879 283.637 407.189 267.098 400.559 251.695C399.738 249.794 397.948 248.467 395.777 249.094C393.978 249.641 392.365 251.941 393.177 253.876C399.535 268.696 403.199 284.467 403.885 300.585C404.092 305.519 411.774 305.321 411.553 300.365L411.588 300.374Z" fill="#3E5C6D"/>
<path d="M398.415 359.168C411.309 349.91 418.768 333.758 416.796 317.898C416.548 315.852 415.062 314.094 412.852 314.174C410.926 314.226 408.866 316.05 409.128 318.118C410.766 331.262 405.111 344.937 394.374 352.671C392.681 353.875 391.993 356.111 393.142 357.958C394.183 359.631 396.736 360.393 398.429 359.189L398.415 359.168Z" fill="#3E5C6D"/>
<path d="M376.713 342.593C381.523 328.722 381.931 313.49 378.152 299.327C376.868 294.551 369.521 296.741 370.792 301.495C374.253 314.47 373.645 328.168 369.242 340.853C368.562 342.812 370.239 345.024 372.107 345.459C374.292 345.968 376.034 344.553 376.713 342.593Z" fill="#3E5C6D"/>
<path d="M375.963 279.776C367.809 265.652 364.488 248.883 366.842 232.712C367.549 227.842 360.086 226.066 359.371 230.971C356.716 249.228 360.221 267.841 369.467 283.817C371.945 288.091 378.463 284.037 375.984 279.762L375.963 279.776Z" fill="#3E5C6D"/>
<path d="M382.404 525.775C373.305 515.946 364.228 506.103 355.13 496.274C353.723 494.738 351.029 495.058 349.691 496.493C348.199 498.115 348.504 500.396 349.911 501.932C359.009 511.761 368.086 521.604 377.185 531.433C378.592 532.969 381.286 532.649 382.623 531.214C384.115 529.592 383.811 527.311 382.404 525.775Z" fill="#3E5C6D"/>
<path d="M344.607 490.645C339.356 482.641 334.141 474.645 328.89 466.641C327.751 464.908 325.385 464.301 323.603 465.41C321.822 466.518 321.234 468.963 322.372 470.696C327.623 478.7 332.839 486.696 338.09 494.7C339.228 496.433 341.594 497.04 343.376 495.932C345.157 494.823 345.745 492.378 344.607 490.645Z" fill="#3E5C6D"/>
<path d="M318.327 452.811C313.534 444.914 306.867 438.363 298.979 433.627C297.202 432.563 294.724 433.472 293.795 435.225C292.79 437.146 293.616 439.345 295.393 440.409C302.089 444.44 307.725 450.155 311.809 456.866C312.863 458.561 315.412 459.266 317.095 458.098C318.779 456.929 319.44 454.65 318.327 452.811Z" fill="#3E5C6D"/>
<path d="M283.075 420.076C274.942 410.249 261.758 404.8 249.068 405.763C247.004 405.932 245.284 407.575 245.345 409.707C245.403 411.69 247.224 413.601 249.289 413.431C254.719 413.006 260.088 413.885 264.852 415.924C270.155 418.2 274.158 421.194 277.899 425.707C279.22 427.297 282.052 426.86 283.338 425.488C284.904 423.791 284.452 421.661 283.118 420.049L283.075 420.076Z" fill="#3E5C6D"/>
<path d="M226.735 404.981C224.213 405.043 221.688 404.957 219.174 404.743C218.954 404.729 218.339 404.66 218.862 404.726C218.55 404.709 218.247 404.657 217.956 404.626C217.341 404.557 216.747 404.475 216.118 404.384C214.825 404.194 213.575 403.977 212.298 403.717C209.885 403.229 207.505 402.6 205.136 401.844C204.545 401.669 203.962 401.459 203.38 401.249C203.035 401.131 202.678 400.992 202.333 400.875C202.832 401.047 202.249 400.837 202.046 400.752C200.854 400.289 199.656 399.768 198.48 399.234C196.645 398.417 194.217 398.873 193.296 400.832C192.452 402.623 192.949 405.117 194.894 406.016C204.961 410.572 215.908 412.862 226.942 412.627C228.96 412.577 230.835 410.748 230.666 408.683C230.496 406.619 228.867 404.92 226.722 404.959L226.735 404.981Z" fill="#3E5C6D"/>
<path d="M180.494 410.092C186.194 423.904 196.827 435.28 210.471 441.468C214.958 443.498 218.558 436.739 214.057 434.687C202.381 429.385 192.791 419.831 187.854 407.924C187.055 406.011 185.222 404.71 183.072 405.324C181.238 405.863 179.682 408.157 180.472 410.106L180.494 410.092Z" fill="#3E5C6D"/>
<path d="M230.214 458.237C238.918 468.402 250.984 475.541 264.048 478.473C268.885 479.563 270.625 472.091 265.788 471.002C253.909 468.327 243.35 461.817 235.433 452.579C234.09 451.003 231.301 451.412 229.994 452.798C228.45 454.482 228.858 456.639 230.214 458.237Z" fill="#3E5C6D"/>
<path d="M277.918 479.066C285.728 478.396 293.538 477.726 301.334 477.035C303.342 476.871 305.225 475.247 305.058 473.091C304.921 471.127 303.257 469.179 301.114 469.367C293.304 470.037 285.494 470.707 277.698 471.398C275.691 471.562 273.808 473.186 273.974 475.342C274.111 477.306 275.775 479.254 277.918 479.066Z" fill="#3E5C6D"/>
<path d="M306.13 457.958C299.476 455.498 292.823 453.037 286.183 450.599C285.326 450.288 284.024 450.616 283.285 451.075C282.481 451.575 281.742 452.518 281.577 453.464C281.412 454.41 281.47 455.52 282.054 456.362C282.665 457.247 283.432 457.704 284.443 458.07C291.096 460.53 297.75 462.991 304.39 465.429C305.246 465.74 306.549 465.412 307.287 464.953C308.091 464.453 308.831 463.51 308.995 462.564C309.16 461.618 309.103 460.508 308.519 459.666C307.907 458.781 307.141 458.324 306.13 457.958Z" fill="#3E5C6D"/>
<path d="M266.995 449.157C258.809 446.655 250.969 442.191 244.542 436.365C243.072 435.019 240.46 434.986 239.103 436.584C237.747 438.181 237.728 440.573 239.323 442.022C246.757 448.789 255.618 453.733 265.246 456.663C267.173 457.242 269.493 455.739 269.852 453.798C270.26 451.645 269.033 449.817 266.986 449.192L266.995 449.157Z" fill="#3E5C6D"/>
<path d="M321.793 442.397C316.743 436.799 313.122 429.138 312.039 421.584C311.755 419.531 310.34 417.789 308.094 417.86C306.204 417.921 304.074 419.729 304.371 421.804C305.75 431.675 309.919 440.653 316.595 448.042C317.981 449.59 320.718 449.244 322.034 447.822C323.548 446.187 323.213 443.954 321.814 442.384L321.793 442.397Z" fill="#3E5C6D"/>
<path d="M304.341 402.868C300.566 393.313 296.791 383.757 293.016 374.202C292.239 372.275 290.348 370.98 288.234 371.602C286.378 372.154 284.879 374.443 285.634 376.384C289.409 385.939 293.184 395.494 296.959 405.049C297.737 406.977 299.627 408.272 301.741 407.649C303.597 407.097 305.097 404.809 304.341 402.868Z" fill="#3E5C6D"/>
<path d="M277.813 353.494C272.35 344.567 262.824 338.168 252.409 336.782C250.36 336.49 248.304 337.498 247.804 339.648C247.369 341.515 248.598 343.975 250.669 344.254C251.751 344.394 252.838 344.592 253.909 344.86C254.473 344.991 255.05 345.144 255.606 345.311C255.866 345.39 256.091 345.461 256.352 345.54C256.352 345.54 257.278 345.868 256.991 345.745C256.717 345.644 257.384 345.892 257.433 345.922C257.72 346.045 258.043 346.176 258.33 346.298C258.799 346.519 259.267 346.74 259.736 346.96C260.785 347.483 261.803 348.055 262.77 348.689C262.979 348.831 263.209 348.958 263.431 349.122C263.591 349.233 263.911 349.456 263.578 349.211C264.057 349.546 264.506 349.929 264.964 350.278C265.822 350.979 266.637 351.708 267.401 352.499C267.807 352.909 268.226 353.341 268.589 353.779C268.629 353.844 269.116 354.385 268.897 354.129C268.637 353.809 269.26 354.567 269.3 354.632C270.017 355.542 270.661 356.528 271.282 357.527C272.337 359.222 274.863 359.94 276.569 358.759C278.274 357.577 278.914 355.311 277.8 353.472L277.813 353.494Z" fill="#3E5C6D"/>
<path d="M234.988 326.073C227.53 323.239 220.107 320.414 212.648 317.58C211.673 317.223 210.8 316.982 209.761 317.298C208.843 317.567 207.868 318.324 207.443 319.191C206.659 320.885 207.027 323.609 209.041 324.375C216.499 327.209 223.922 330.034 231.381 332.868C232.356 333.225 233.229 333.466 234.269 333.151C235.186 332.881 236.161 332.124 236.586 331.257C237.37 329.563 237.002 326.839 234.988 326.073Z" fill="#3E5C6D"/>
<path d="M174.551 325.461C175.318 320.494 176.578 315.641 178.262 310.888C178.286 310.782 178.472 310.305 178.333 310.663C178.442 310.354 178.573 310.031 178.703 309.709C178.927 309.148 179.15 308.587 179.396 308.012C179.865 306.877 180.36 305.785 180.878 304.679C181.981 302.335 183.195 300.073 184.507 297.871C185.541 296.142 184.7 293.531 182.909 292.687C180.95 291.766 178.82 292.459 177.726 294.284C172.372 303.311 168.712 313.363 167.08 323.72C166.77 325.692 167.806 327.94 169.946 328.327C171.865 328.699 174.208 327.573 174.551 325.461Z" fill="#3E5C6D"/>
<path d="M175.512 328.51L187.404 322.437C189.367 321.427 191.343 320.438 193.306 319.428C195.269 318.418 196.962 317.214 198.042 315.367C200.217 311.693 198.633 307.646 196.535 304.371C194.185 300.739 191.814 297.122 189.443 293.504C188.304 291.771 185.938 291.164 184.156 292.272C182.375 293.381 181.787 295.826 182.925 297.559C185.004 300.755 187.105 303.939 189.171 307.114C189.604 307.809 190.093 308.499 190.526 309.194C190.688 309.455 190.842 309.751 191.004 310.011C191.545 310.881 190.899 309.504 191.204 310.43C191.301 310.731 191.406 310.997 191.468 311.29C191.538 311.548 191.524 311.526 191.457 311.176C191.459 311.567 191.456 311.659 191.465 311.382C191.236 311.886 191.71 311.049 191.465 311.382C191.647 310.997 191.207 311.693 191.046 311.823C191.427 311.466 190.851 311.945 190.699 312.04C190.395 312.229 190.112 312.405 189.795 312.572C188.92 313.056 188.041 313.482 187.161 313.909L181.915 316.57L171.438 321.913C169.584 322.856 169.18 325.548 170.207 327.199C171.383 329.089 173.639 329.374 175.493 328.431L175.512 328.51Z" fill="#3E5C6D"/>
<path d="M184.278 290.721C179.37 281.961 175.926 272.502 174.028 262.622C172.38 254.064 173.341 243.401 165.696 237.459C158.78 232.058 149.785 235.424 146.753 243.338C143.363 252.227 148.986 261.265 153.216 268.79C159.329 279.633 166.237 290.011 173.132 300.367C175.872 304.48 182.389 300.425 179.65 296.313C173.196 286.616 166.72 276.933 160.917 266.831C158.271 262.239 155.045 257.345 153.768 252.143C152.988 248.952 153.264 243.777 157.102 242.535C160.939 241.293 163.489 246.215 164.292 249.152C165.71 254.387 165.718 260.017 166.778 265.355C168.832 275.679 172.631 285.611 177.774 294.798C180.187 299.113 186.704 295.058 184.291 290.743L184.278 290.721Z" fill="#3E5C6D"/>
<path d="M151.575 250.071C145.566 246.516 139.388 247.678 134.125 252.006C128.863 256.335 124.173 264.587 127.028 271.791C130.25 279.973 140.539 283.095 147.479 287.275C155.785 292.294 163.503 298.16 170.682 304.663C174.334 307.966 179.559 302.366 175.88 299.019C170.33 293.973 164.44 289.35 158.254 285.122C152.068 280.895 145.625 277.61 139.223 273.908C136.782 272.503 133.901 270.439 133.842 267.341C133.793 264.84 135.006 261.946 136.612 260.072C139.774 256.388 143.576 254.264 147.975 256.831C152.375 259.397 155.828 252.548 151.561 250.049L151.575 250.071Z" fill="#3E5C6D"/>
<path d="M131.005 259.584C123.733 258.503 115.873 259.867 111.363 266.229C109.445 268.959 108.671 272.123 109.163 275.433C109.602 278.414 110.653 281.557 112.96 283.618C114.452 284.95 117.042 284.996 118.399 283.399C119.755 281.802 119.774 279.409 118.179 277.96C118.166 277.939 117.738 277.542 117.76 277.528C117.825 277.488 118.384 278.435 117.96 277.705C117.825 277.488 117.216 276.751 117.295 276.491L117.509 276.931C117.436 276.765 117.385 276.586 117.312 276.421C117.233 276.198 117.155 275.976 117.099 275.739C117.042 275.503 116.964 275.281 116.908 275.045C116.87 274.887 116.723 273.924 116.835 274.879C116.779 274.402 116.723 273.924 116.724 273.441C116.719 273.143 116.728 272.866 116.736 272.59C116.722 273.051 116.657 273.091 116.75 272.611C116.799 272.4 116.848 272.189 116.919 271.964C117.176 271.02 116.612 272.486 117.072 271.628C117.186 271.376 117.336 271.132 117.45 270.88C117.54 270.733 117.63 270.587 117.72 270.441C117.483 270.739 117.475 270.774 117.638 270.552C118.043 270.089 118.448 269.626 118.889 269.171C119.402 268.641 118.65 269.32 119.005 269.068C119.244 268.92 119.456 268.728 119.695 268.579C119.978 268.403 120.282 268.214 120.564 268.038C120.651 267.984 121.487 267.585 121.012 267.79C120.537 267.995 121.422 267.625 121.501 267.606C121.846 267.482 122.19 267.358 122.527 267.269C122.806 267.186 123.121 267.111 123.414 267.049C123.65 266.992 124.228 266.904 123.672 266.979C124.386 266.866 125.14 266.819 125.85 266.799C126.469 266.776 127.079 266.788 127.681 266.835C127.681 266.835 128.863 266.944 128.177 266.858C128.538 266.905 128.899 266.952 129.259 266.999C131.252 267.296 133.456 266.286 133.865 264.133C134.216 262.227 133.12 259.835 130.999 259.527L131.005 259.584Z" fill="#3E5C6D"/>
<path d="M173.304 307.281C161.585 296.34 147.642 288.168 133.254 281.268C126.734 278.151 118.652 275.284 112.26 280.316C106.683 284.72 107.14 293.446 110.356 299.1C112.791 303.401 119.309 299.346 116.874 295.045C115.744 293.035 115.299 290.479 115.917 288.227C116.534 285.974 118.48 285.276 120.647 285.223C123.411 285.161 126.029 286.366 128.492 287.515C131.424 288.886 134.317 290.34 137.168 291.822C148.303 297.611 158.883 304.349 168.085 312.939C171.685 316.304 176.918 310.668 173.282 307.295L173.304 307.281Z" fill="#3E5C6D"/>
<path d="M170.325 314.65C161.654 309.527 152.405 305.608 142.941 302.214C138.363 300.571 133.717 299.062 129.063 297.588C124.789 296.239 119.822 293.874 115.26 294.242C110.355 294.641 106.805 298.718 105.862 303.403C105.043 307.559 106.105 311.931 108.365 315.467C113.399 323.365 122.588 326.026 131.465 326.199C142.919 326.397 154.499 324.134 165.807 322.644C167.86 322.361 169.588 320.925 169.53 318.7C169.491 316.796 167.64 314.693 165.586 314.976C156.831 316.114 148.063 317.47 139.236 318.201C132.302 318.777 123.727 319.381 117.908 314.774C115.601 312.954 113.681 310.352 113.264 307.357C112.881 304.611 113.976 301.429 117.18 302.027C121.12 302.741 125.038 304.341 128.841 305.561C132.855 306.831 136.84 308.149 140.786 309.552C149.738 312.752 158.507 316.578 166.704 321.423C170.949 323.935 174.535 317.154 170.29 314.642L170.325 314.65Z" fill="#3E5C6D"/>
<path d="M112.381 314.414C107.347 317.124 102.883 323.608 103.224 329.484C103.672 337.131 111.771 342.399 118.666 343.262C127.096 344.316 134.755 340.787 142.239 337.366C150.639 333.526 159.33 330.349 168.228 327.797C172.986 326.434 170.782 319.066 166.06 320.436C159.01 322.472 152.075 324.888 145.305 327.714C139.045 330.342 132.949 333.864 126.271 335.336C121.137 336.481 114.32 335.84 111.507 330.689C109.567 327.135 113.417 322.57 116.45 320.954C120.805 318.606 116.728 312.102 112.394 314.436L112.381 314.414Z" fill="#3E5C6D"/>
<path d="M125.898 336.142C121.907 339.318 117.607 344.223 116.053 349.137C113.938 355.908 121.286 362.005 127.617 361.622C131.274 361.396 134.633 359.578 137.499 357.403C141.098 354.712 144.494 351.695 147.972 348.808C155.655 342.461 163.351 336.136 171.035 329.789C172.646 328.455 173.447 326.449 172.266 324.502C171.279 322.916 168.569 321.95 166.979 323.271C161.141 328.078 155.316 332.908 149.456 337.729C143.938 342.277 138.572 347.213 132.754 351.375C130.923 352.694 128.419 354.433 126.009 353.853C124.938 353.585 124.136 352.878 123.569 351.966C123.096 351.205 123.263 351.764 123.326 351.333C123.614 349.617 125.582 347.549 126.623 346.268C127.273 345.472 127.937 344.698 128.627 343.967C128.921 343.664 129.236 343.347 129.529 343.044C129.654 342.906 130.603 342.105 129.896 342.665C131.534 341.375 132.295 339.304 131.128 337.379C130.127 335.771 127.458 334.87 125.841 336.147L125.898 336.142Z" fill="#3E5C6D"/>
</g>
<defs>
<clipPath id="clip0_193_175">
<rect width="317.889" height="510.688" fill="white" transform="translate(0 167.925) rotate(-31.8873)"/>
</clipPath>
</defs>
</svg>
