<svg width="396" height="463" viewBox="0 0 396 463" fill="none" xmlns="http://www.w3.org/2000/svg">
<g clip-path="url(#clip0_193_225)">
<path d="M3.69652 383.921C9.23312 378.652 15.7636 375.096 23.1902 373.299C24.859 372.888 25.5817 370.652 25.034 369.189C24.3668 367.42 22.6057 366.952 20.9244 367.345C13.1028 369.248 5.76293 373.241 -0.0730302 378.782C-1.31375 379.954 -1.85775 381.719 -0.755689 383.221C0.158522 384.468 2.4262 385.089 3.684 383.904L3.69652 383.921Z" fill="#3E5C6D"/>
<path d="M40.2663 365.789C48.1082 362.374 55.9547 358.929 63.7967 355.514C65.371 354.832 66.2621 353.075 65.6405 351.404C65.0598 349.861 63.1222 348.866 61.5308 349.561C53.6889 352.976 45.8424 356.42 38.0005 359.835C36.4262 360.517 35.5349 362.274 36.1566 363.945C36.7373 365.489 38.6749 366.483 40.2663 365.789Z" fill="#3E5C6D"/>
<path d="M76.2087 345.727L93.5474 334.243C94.9293 333.335 95.2752 331.085 94.2301 329.804C93.1098 328.419 91.2748 328.137 89.7904 329.121L72.4517 340.605C71.0698 341.513 70.7239 343.763 71.769 345.044C72.8893 346.429 74.7244 346.711 76.2087 345.727Z" fill="#3E5C6D"/>
<path d="M107.622 325.863C116.148 320.659 122.048 311.553 123.445 301.679C124.022 297.632 117.747 296.667 117.17 300.714C115.971 309.104 111.035 316.374 103.865 320.741C102.394 321.636 102.231 323.883 103.183 325.18C104.272 326.666 106.152 326.758 107.622 325.863Z" fill="#3E5C6D"/>
<path d="M133.013 289.592C137.913 282.453 142.808 275.343 147.708 268.204C148.668 266.791 148.587 264.855 147.184 263.73C145.916 262.717 143.687 262.829 142.711 264.254C137.811 271.394 132.915 278.503 128.015 285.642C127.055 287.055 127.136 288.992 128.539 290.116C129.807 291.129 132.036 291.017 133.013 289.592Z" fill="#3E5C6D"/>
<path d="M154.339 256.619C157.601 250.183 162.386 244.677 168.174 240.431C169.557 239.417 169.871 237.375 168.857 235.992C167.843 234.609 165.8 234.295 164.417 235.309C157.707 240.231 152.264 246.666 148.487 254.084C147.721 255.617 148.628 257.605 150.133 258.26C151.794 258.985 153.531 258.131 154.309 256.615L154.339 256.619Z" fill="#3E5C6D"/>
<path d="M181.304 228.437C186.307 223.192 193.017 219.451 200.161 218.019C201.833 217.686 203.19 216.349 202.985 214.53C202.819 212.944 201.185 211.36 199.495 211.706C190.57 213.5 182.59 217.909 176.319 224.504C175.129 225.745 175.588 227.982 176.843 228.978C178.288 230.124 180.109 229.707 181.317 228.454L181.304 228.437Z" fill="#3E5C6D"/>
<path d="M218.237 209.224C218.834 208.786 219.44 208.394 220.075 208.007C220.229 207.895 220.39 207.829 220.557 207.733C220.305 207.891 220.229 207.895 220.539 207.745C220.867 207.584 221.195 207.422 221.523 207.26C222.893 206.623 224.33 206.147 225.783 205.764C225.316 205.844 226.241 205.638 225.783 205.764C225.969 205.732 226.143 205.683 226.33 205.651C226.691 205.57 227.047 205.519 227.404 205.468C228.133 205.353 228.854 205.297 229.587 205.258C229.939 205.236 230.32 205.219 230.684 205.215C230.867 205.212 231.049 205.21 231.231 205.208C230.753 205.165 231.701 205.204 231.231 205.208C232.009 205.267 232.788 205.326 233.545 205.427C235.19 205.665 236.977 204.485 237.165 202.772C237.353 201.059 236.273 199.408 234.51 199.152C227.486 198.133 220.242 199.928 214.467 204.085C213.135 205.062 212.702 207.192 213.784 208.525C214.867 209.858 216.777 210.242 218.224 209.207L218.237 209.224Z" fill="#3E5C6D"/>
<path d="M282.735 218.714C277.032 223.685 271.97 229.314 267.597 235.489C265.353 238.659 263.314 241.966 261.486 245.381C259.801 248.561 257.845 252.017 257.337 255.62C256.91 258.69 257.658 262.002 260.114 264.061C262.704 266.231 266.385 266.131 269.289 264.683C272.567 263.066 275.024 259.899 277.306 257.175C279.588 254.45 281.964 251.316 284.029 248.225C288.983 240.837 292.838 232.81 295.748 224.425C297.085 220.556 290.91 219.046 289.577 222.886C287.012 230.308 283.527 237.408 279.242 243.99C277.102 247.267 274.757 250.405 272.205 253.406C270.892 254.947 266.922 260.669 264.328 259.316C261.733 257.962 265.223 252.015 265.989 250.482C267.72 247.006 269.674 243.656 271.852 240.43C276.172 234.005 281.388 228.262 287.215 223.174C290.31 220.484 285.766 216.044 282.705 218.709L282.735 218.714Z" fill="#3E5C6D"/>
<path d="M270.195 208.455C262.632 208.671 255.153 209.824 247.847 211.822C244.114 212.854 240.437 214.107 236.859 215.602C233.541 216.985 229.837 218.415 227.155 220.881C224.88 222.971 223.352 226.008 223.941 229.174C224.566 232.496 227.477 234.747 230.637 235.475C234.19 236.309 238.083 235.422 241.593 234.765C245.102 234.108 248.894 233.191 252.467 232.119C260.982 229.55 269.056 225.807 276.636 221.14C280.115 219.009 276.307 213.924 272.845 216.043C266.152 220.165 258.955 223.421 251.472 225.786C247.745 226.97 243.919 227.912 240.058 228.591C238.063 228.951 231.364 230.845 230.215 228.169C229.067 225.493 235.526 223.092 237.117 222.398C240.662 220.822 244.31 219.458 248.011 218.346C255.412 216.12 263.116 214.987 270.83 214.764C274.923 214.651 274.245 208.32 270.182 208.438L270.195 208.455Z" fill="#3E5C6D"/>
<path d="M267.002 192.573C261.02 187.927 254.505 184.093 247.601 181.017C244.056 179.442 240.432 178.082 236.696 176.962C233.251 175.918 229.486 174.688 225.85 174.886C222.748 175.061 219.659 176.434 218.121 179.242C216.484 182.202 217.31 185.798 219.294 188.36C221.517 191.247 225.102 193.055 228.218 194.761C231.333 196.467 234.873 198.178 238.318 199.616C246.531 203.045 255.16 205.25 263.956 206.466C268.008 207.013 268.287 200.663 264.266 200.12C256.476 199.059 248.853 197.009 241.561 194.086C237.922 192.632 234.395 190.939 230.964 189.018C229.208 188.021 222.817 185.251 223.627 182.452C224.436 179.653 230.951 181.911 232.623 182.365C236.373 183.396 240.027 184.655 243.616 186.145C250.762 189.122 257.42 193.115 263.523 197.855C266.757 200.367 270.24 195.055 267.036 192.548L267.002 192.573Z" fill="#3E5C6D"/>
<path d="M274.624 178.263C272.941 170.884 270.353 163.775 266.969 157.014C265.244 153.553 263.277 150.19 261.122 146.965C259.112 143.975 256.992 140.62 254.051 138.471C251.546 136.632 248.273 135.75 245.304 136.93C242.174 138.175 240.529 141.483 240.41 144.721C240.303 148.371 241.908 152.026 243.232 155.335C244.556 158.644 246.191 162.197 247.956 165.498C252.141 173.352 257.384 180.536 263.425 187.054C266.206 190.057 270.449 185.316 267.681 182.331C262.343 176.557 257.736 170.168 253.951 163.254C252.057 159.812 250.405 156.271 248.983 152.613C248.257 150.729 245.075 144.529 247.481 142.869C249.888 141.209 253.497 147.096 254.477 148.504C256.718 151.666 258.753 154.979 260.576 158.395C264.205 165.239 266.825 172.534 268.557 180.087C269.471 184.09 275.535 182.19 274.616 178.216L274.624 178.263Z" fill="#3E5C6D"/>
<path d="M289.583 172.019C292.959 165.236 295.461 158.122 297.128 150.728C297.982 146.951 298.603 143.108 298.983 139.258C299.322 135.674 299.821 131.737 298.91 128.203C298.146 125.193 296.177 122.436 293.129 121.467C289.909 120.442 286.555 121.957 284.407 124.399C282.002 127.134 280.953 131.003 279.854 134.409C278.754 137.815 277.795 141.591 277.065 145.251C275.316 153.965 274.811 162.87 275.355 171.74C275.608 175.809 281.891 174.851 281.638 170.782C281.163 162.938 281.679 155.049 283.108 147.331C283.823 143.472 284.799 139.683 286.008 135.961C286.638 134.028 288.108 127.225 291.024 127.476C293.939 127.727 292.981 134.548 292.853 136.271C292.574 140.151 292.059 143.995 291.294 147.786C289.765 155.368 287.154 162.692 283.696 169.614C281.874 173.288 287.765 175.663 289.583 172.019Z" fill="#3E5C6D"/>
<path d="M305.101 176.706C312.017 173.603 318.466 169.686 324.437 165.044C327.499 162.667 330.411 160.085 333.15 157.34C335.693 154.792 338.569 152.053 340.107 148.745C341.416 145.946 341.652 142.544 339.897 139.865C338.06 137.038 334.512 136.069 331.297 136.589C327.69 137.186 324.426 139.502 321.432 141.435C318.438 143.369 315.279 145.686 312.399 148.061C305.521 153.684 299.483 160.239 294.269 167.452C291.866 170.763 297.338 173.998 299.723 170.699C304.323 164.331 309.738 158.574 315.742 153.513C318.751 150.991 321.897 148.657 325.219 146.562C326.916 145.475 332.383 141.149 334.479 143.183C336.575 145.217 331.506 149.907 330.315 151.148C327.655 153.966 324.794 156.616 321.799 159.049C315.804 163.945 309.146 167.936 302.087 171.092C298.346 172.759 301.395 178.348 305.106 176.676L305.101 176.706Z" fill="#3E5C6D"/>
<path d="M314.134 190.168C321.448 192.156 328.92 193.214 336.478 193.421C340.356 193.517 344.224 193.385 348.087 192.994C351.674 192.621 355.624 192.35 358.915 190.75C361.712 189.407 364.029 186.946 364.398 183.761C364.764 180.393 362.649 177.402 359.824 175.771C356.667 173.938 352.681 173.658 349.136 173.265C345.591 172.871 341.672 172.648 337.962 172.638C329.072 172.62 320.245 173.869 311.658 176.124C307.712 177.153 309.868 183.135 313.813 182.106C321.407 180.107 329.245 179.085 337.106 178.99C341.037 178.943 344.944 179.15 348.827 179.61C350.836 179.843 357.785 179.972 358.126 182.872C358.468 185.773 351.573 186.183 349.86 186.389C346.013 186.873 342.144 187.112 338.252 187.104C330.515 187.081 322.827 185.945 315.369 183.905C311.429 182.83 310.228 189.068 314.168 190.143L314.134 190.168Z" fill="#3E5C6D"/>
<path d="M312.566 206.288C316.934 212.458 322.063 218.018 327.783 222.987C330.724 225.53 333.787 227.879 337.016 230.027C340.028 232.02 343.252 234.303 346.8 235.166C349.808 235.901 353.175 235.48 355.473 233.242C357.895 230.888 358.142 227.215 357.006 224.162C355.712 220.751 352.819 217.989 350.318 215.438C347.817 212.888 344.953 210.236 342.077 207.855C335.221 202.196 327.601 197.57 319.521 193.859C315.8 192.151 313.682 198.143 317.403 199.851C324.547 203.145 331.241 207.295 337.393 212.209C340.454 214.664 343.336 217.304 346.067 220.132C347.479 221.591 352.784 226.103 351.195 228.555C349.606 231.008 344.033 226.955 342.569 226.033C339.296 223.969 336.131 221.695 333.151 219.207C327.181 214.291 321.978 208.522 317.492 202.228C315.127 198.895 310.242 202.976 312.595 206.292L312.566 206.288Z" fill="#3E5C6D"/>
<path d="M301.135 217.77C300.61 225.325 301.025 232.872 302.3 240.339C302.954 244.166 303.858 247.941 304.971 251.642C306.031 255.092 307.095 258.906 309.266 261.83C311.129 264.298 314.002 266.103 317.194 265.836C320.556 265.55 323.087 262.879 324.137 259.799C325.305 256.342 324.809 252.373 324.508 248.812C324.207 245.252 323.652 241.379 322.941 237.725C321.221 229.008 318.274 220.587 314.395 212.613C312.614 208.931 307.183 212.232 308.952 215.897C312.379 222.968 314.942 230.436 316.563 238.123C317.381 241.96 317.937 245.833 318.23 249.741C318.391 251.75 319.622 258.62 316.851 259.497C314.081 260.374 312.318 253.71 311.78 252.082C310.557 248.41 309.56 244.651 308.813 240.84C307.314 233.248 306.948 225.481 307.484 217.762C307.764 213.669 301.407 213.737 301.13 217.8L301.135 217.77Z" fill="#3E5C6D"/>
<path d="M121.979 314.466L134.344 307.05C135.764 306.193 136.03 303.871 135.027 302.611C133.856 301.158 132.122 301.013 130.587 301.928L118.222 309.344C116.802 310.201 116.536 312.524 117.539 313.784C118.709 315.236 120.444 315.382 121.979 314.466Z" fill="#3E5C6D"/>
<path d="M145.32 298.921C150.721 293.253 159.025 290.181 166.982 291.041C168.695 291.228 170.334 290.132 170.602 288.386C170.852 286.758 169.66 284.954 167.947 284.766C157.65 283.653 147.458 287.479 140.335 294.989C139.144 296.23 139.59 298.45 140.859 299.463C142.303 300.609 144.142 300.179 145.332 298.938L145.32 298.921Z" fill="#3E5C6D"/>
<path d="M185.393 283.418C201.041 278.294 218.289 279.325 233.255 286.124C236.964 287.815 239.513 281.981 235.787 280.302C219.307 272.801 200.305 271.849 183.139 277.482C179.246 278.762 181.516 284.686 185.393 283.418Z" fill="#3E5C6D"/>
<path d="M247.202 284.481C261.136 287.653 275.881 285.057 288.06 277.673C289.53 276.778 289.694 274.531 288.742 273.233C287.653 271.748 285.773 271.656 284.303 272.551C273.526 279.09 260.402 280.996 248.167 278.206C244.17 277.304 243.235 283.584 247.202 284.481Z" fill="#3E5C6D"/>
<path d="M222.313 324.193C240.893 312.218 259.486 300.261 278.084 288.274C281.53 286.062 277.755 280.952 274.327 283.152C255.746 295.126 237.153 307.084 218.556 319.071C215.11 321.283 218.884 326.393 222.313 324.193Z" fill="#3E5C6D"/>
<path d="M156.455 347.972C170.22 346.331 183.635 342.243 195.926 335.8C197.442 335.003 198.425 333.442 197.77 331.691C197.205 330.24 195.206 329.054 193.66 329.847C181.833 336.028 169.051 340.046 155.795 341.629C151.736 342.112 152.385 348.437 156.46 347.943L156.455 347.972Z" fill="#3E5C6D"/>
<path d="M107.111 340.813C115.563 350.868 129.362 356.003 142.324 353.375C143.996 353.041 145.353 351.705 145.148 349.886C144.983 348.3 143.348 346.716 141.659 347.062C130.916 349.243 119.276 345.439 112.216 337.068C111.117 335.748 109.228 335.321 107.777 336.385C106.462 337.35 105.994 339.505 107.094 340.825L107.111 340.813Z" fill="#3E5C6D"/>
<path d="M119.417 321.859C131.166 324.953 143.76 324.328 155.208 320.316C159.068 318.955 156.798 313.032 152.955 314.38C142.467 318.055 131.126 318.417 120.382 315.584C118.722 315.147 117.003 316.671 116.762 318.239C116.48 320.074 117.757 321.422 119.417 321.859Z" fill="#3E5C6D"/>
<path d="M171.203 317.276C182.342 309.657 195.969 305.858 209.461 306.781C213.524 307.057 214.519 300.787 210.426 300.506C195.195 299.468 180.057 303.534 167.458 312.171C164.088 314.486 167.845 319.608 171.215 317.293L171.203 317.276Z" fill="#3E5C6D"/>
<path d="M-4.77085 304.709C1.5023 299.872 7.77088 295.064 14.044 290.226C15.402 289.177 15.7536 287.186 14.7267 285.786C13.6998 284.386 11.645 284.055 10.287 285.104C4.01386 289.942 -2.25473 294.75 -8.52788 299.587C-9.88587 300.636 -10.2375 302.627 -9.21054 304.027C-8.18362 305.427 -6.12884 305.758 -4.77085 304.709Z" fill="#3E5C6D"/>
<path d="M24.7887 280.638C31.0027 276.185 35.9871 270.271 39.3971 263.463C40.1631 261.929 39.2568 259.942 37.7518 259.287C36.1034 258.579 34.3413 259.399 33.5753 260.932C30.6718 266.712 26.3111 271.722 21.0317 275.516C19.6999 276.493 19.2788 278.64 20.349 279.956C21.4192 281.271 23.3419 281.673 24.7887 280.638Z" fill="#3E5C6D"/>
<path d="M49.5759 249.484C57.1717 242.153 60.8363 230.931 59.2406 220.521C58.9707 218.828 57.5066 217.513 55.7512 217.697C54.1188 217.871 52.6573 219.494 52.9273 221.187C53.6209 225.641 53.2342 230.126 51.8525 234.186C50.3093 238.705 48.0909 242.197 44.6032 245.569C43.375 246.759 43.9136 249.068 45.1272 250.043C46.6265 251.228 48.3557 250.721 49.601 249.518L49.5759 249.484Z" fill="#3E5C6D"/>
<path d="M58.4762 202.044C58.2654 199.966 58.1776 197.878 58.1957 195.79C58.1934 195.608 58.2115 195.095 58.1899 195.531C58.1842 195.273 58.2081 195.019 58.2149 194.778C58.2331 194.266 58.2638 193.77 58.299 193.246C58.3741 192.166 58.4742 191.121 58.6084 190.051C58.8587 188.03 59.2274 186.026 59.7019 184.024C59.8089 183.525 59.9454 183.031 60.082 182.537C60.1571 182.245 60.2493 181.941 60.3244 181.65C60.214 182.072 60.3506 181.578 60.4075 181.405C60.7148 180.392 61.0687 179.371 61.4352 178.367C61.994 176.802 61.4645 174.827 59.7899 174.191C58.2587 173.607 56.2325 174.174 55.6134 175.836C52.4892 184.43 51.2901 193.607 52.1799 202.697C52.3486 204.359 53.9765 205.791 55.6693 205.521C57.362 205.251 58.6608 203.799 58.4933 202.031L58.4762 202.044Z" fill="#3E5C6D"/>
<path d="M51.3413 164.212C40.3042 169.787 31.5885 179.279 27.3433 190.927C25.9514 194.757 31.7561 197.301 33.1651 193.458C36.8037 183.489 44.0817 174.973 53.5946 170.148C55.1234 169.368 56.0806 167.773 55.4385 166.039C54.8783 164.559 52.8872 163.42 51.3288 164.195L51.3413 164.212Z" fill="#3E5C6D"/>
<path d="M14.7543 208.276C6.91609 216.099 1.78632 226.506 0.191217 237.471C-0.402684 241.53 5.87207 242.494 6.46597 238.435C7.92341 228.464 12.6287 219.341 19.752 212.225C20.9677 211.018 20.4541 208.743 19.228 207.751C17.7412 206.584 15.987 207.056 14.7543 208.276Z" fill="#3E5C6D"/>
<path d="M0.575214 248.952C1.62075 255.354 2.66629 261.756 3.72891 268.145C3.99086 269.791 5.44922 271.242 7.21822 270.969C8.83013 270.732 10.3327 269.236 10.0422 267.48C8.99669 261.078 7.95116 254.676 6.88854 248.286C6.62658 246.64 5.1682 245.189 3.3992 245.463C1.78729 245.7 0.284787 247.196 0.575214 248.952Z" fill="#3E5C6D"/>
<path d="M19.7733 270.898C21.3836 265.253 22.994 259.608 24.5872 253.975C24.7898 253.249 24.4368 252.195 24.011 251.614C23.5477 250.982 22.7234 250.432 21.9323 250.355C21.1411 250.279 20.2293 250.397 19.5713 250.932C18.8793 251.492 18.5503 252.153 18.3125 253.01C16.7021 258.656 15.0918 264.301 13.4986 269.934C13.296 270.66 13.649 271.714 14.0748 272.295C14.5381 272.926 15.3624 273.477 16.1535 273.553C16.9447 273.63 17.8565 273.512 18.5145 272.977C19.2065 272.417 19.5355 271.755 19.7733 270.898Z" fill="#3E5C6D"/>
<path d="M24.5671 238.051C26.1147 231.139 29.3039 224.388 33.7055 218.717C34.7231 217.419 34.5851 215.262 33.1815 214.244C31.7778 213.225 29.8027 213.361 28.7077 214.768C23.5935 221.329 20.0732 228.953 18.2627 237.082C17.9065 238.709 19.2932 240.528 20.9177 240.702C22.7197 240.903 24.1506 239.775 24.5375 238.047L24.5671 238.051Z" fill="#3E5C6D"/>
<path d="M33.5996 282.84C37.8999 278.32 43.9933 274.849 50.1575 273.478C51.8343 273.115 53.182 271.837 52.9815 269.989C52.8118 268.433 51.186 266.789 49.4922 267.165C41.4349 268.926 34.2897 272.933 28.6143 278.908C27.4237 280.149 27.8826 282.385 29.1383 283.381C30.583 284.527 32.4044 284.111 33.6121 282.857L33.5996 282.84Z" fill="#3E5C6D"/>
<path d="M65.1178 265.947C72.7639 262.229 80.41 258.511 88.0561 254.793C89.5974 254.03 90.5466 252.389 89.8999 250.684C89.3272 249.187 87.3441 248.094 85.7903 248.84C78.1441 252.558 70.498 256.276 62.8519 259.993C61.3106 260.756 60.3614 262.398 61.0081 264.103C61.5808 265.6 63.564 266.692 65.1178 265.947Z" fill="#3E5C6D"/>
<path d="M104.182 240.942C111.203 235.87 115.882 227.607 116.369 218.925C116.48 217.216 115.519 215.583 113.714 215.306C112.145 215.065 110.193 216.234 110.094 217.961C110.046 218.863 109.952 219.772 109.798 220.673C109.725 221.146 109.635 221.632 109.533 222.101C109.484 222.321 109.44 222.511 109.391 222.731C109.391 222.731 109.179 223.516 109.262 223.272C109.328 223.039 109.165 223.605 109.144 223.647C109.061 223.892 108.973 224.166 108.89 224.411C108.738 224.812 108.585 225.212 108.432 225.613C108.067 226.511 107.66 227.388 107.198 228.226C107.094 228.407 107.003 228.605 106.882 228.799C106.8 228.937 106.636 229.215 106.817 228.925C106.572 229.342 106.284 229.737 106.025 230.136C105.5 230.889 104.951 231.607 104.346 232.287C104.033 232.648 103.703 233.021 103.365 233.348C103.314 233.385 102.898 233.821 103.095 233.625C103.343 233.39 102.757 233.951 102.706 233.989C102 234.638 101.227 235.231 100.442 235.807C99.1102 236.784 98.6766 238.914 99.7593 240.247C100.842 241.58 102.752 241.964 104.199 240.929L104.182 240.942Z" fill="#3E5C6D"/>
<path d="M124.106 203.876C125.974 197.543 127.837 191.24 129.704 184.907C129.938 184.079 130.081 183.344 129.755 182.506C129.475 181.766 128.789 181.009 128.047 180.714C126.6 180.173 124.375 180.649 123.87 182.359C122.002 188.692 120.139 194.995 118.272 201.328C118.039 202.156 117.895 202.891 118.221 203.729C118.501 204.469 119.187 205.226 119.93 205.521C121.377 206.062 123.601 205.586 124.106 203.876Z" fill="#3E5C6D"/>
<path d="M120.799 153.967C124.946 154.287 129.029 155.02 133.058 156.109C133.147 156.123 133.552 156.246 133.248 156.153C133.51 156.224 133.784 156.312 134.058 156.399C134.535 156.548 135.012 156.697 135.502 156.864C136.468 157.179 137.401 157.519 138.346 157.876C140.349 158.639 142.293 159.498 144.193 160.441C145.684 161.186 147.785 160.327 148.369 158.796C149.005 157.121 148.299 155.407 146.724 154.619C138.938 150.772 130.413 148.386 121.763 147.693C120.117 147.561 118.328 148.558 118.144 150.348C117.957 151.955 119.034 153.817 120.799 153.967Z" fill="#3E5C6D"/>
<path d="M118.345 154.954L124.106 164.383C125.063 165.939 126.003 167.507 126.961 169.063C127.918 170.619 129.018 171.94 130.611 172.715C133.779 174.277 137.019 172.715 139.589 170.777C142.437 168.609 145.272 166.425 148.108 164.24C149.466 163.191 149.818 161.2 148.791 159.8C147.764 158.4 145.709 158.069 144.351 159.118C141.844 161.035 139.35 162.969 136.861 164.874C136.315 165.275 135.776 165.722 135.23 166.123C135.025 166.273 134.79 166.419 134.585 166.569C133.903 167.07 134.998 166.451 134.253 166.761C134.011 166.86 133.798 166.963 133.56 167.033C133.352 167.107 133.369 167.094 133.653 167.017C133.331 167.043 133.255 167.047 133.484 167.036C133.053 166.879 133.774 167.217 133.484 167.036C133.813 167.163 133.21 166.843 133.093 166.719C133.412 167.01 132.98 166.565 132.893 166.446C132.717 166.207 132.555 165.985 132.396 165.733C131.942 165.042 131.534 164.343 131.127 163.644L128.601 159.484L123.531 151.176C122.636 149.705 120.389 149.542 119.091 150.493C117.606 151.583 117.513 153.463 118.408 154.933L118.345 154.954Z" fill="#3E5C6D"/>
<path d="M150.077 159.801C156.995 155.199 164.583 151.76 172.616 149.571C179.573 147.671 188.432 147.791 192.853 141.108C196.873 135.06 193.528 127.851 186.807 125.848C179.258 123.612 172.155 128.822 166.213 132.787C157.652 138.515 149.525 144.87 141.414 151.213C138.194 153.733 141.951 158.855 145.171 156.335C152.765 150.398 160.346 144.443 168.315 139.018C171.937 136.545 175.772 133.574 179.984 132.192C182.568 131.347 186.855 131.248 188.122 134.336C189.39 137.425 185.489 139.84 183.116 140.687C178.886 142.188 174.241 142.549 169.903 143.761C161.514 146.107 153.558 149.868 146.303 154.691C142.894 156.955 146.652 162.077 150.06 159.813L150.077 159.801Z" fill="#3E5C6D"/>
<path d="M181.556 130.252C184.11 125.07 182.762 120.046 178.858 115.976C174.954 111.907 167.849 108.558 162.085 111.368C155.537 114.543 153.611 123.23 150.599 129.22C146.982 136.39 142.628 143.129 137.716 149.463C135.221 152.685 140.172 156.642 142.701 153.395C146.514 148.498 149.957 143.346 153.055 137.975C156.154 132.604 158.457 127.08 161.108 121.565C162.113 119.462 163.635 116.954 166.187 116.71C168.247 116.512 170.712 117.33 172.359 118.538C175.599 120.914 177.592 123.917 175.751 127.709C173.911 131.501 179.78 133.918 181.573 130.24L181.556 130.252Z" fill="#3E5C6D"/>
<path d="M172.409 113.879C172.842 107.81 171.22 101.411 165.686 98.0909C163.313 96.6808 160.654 96.2417 157.953 96.8568C155.521 97.407 152.994 98.4728 151.439 100.506C150.434 101.821 150.559 103.961 151.963 104.98C153.366 105.998 155.342 105.863 156.437 104.455C156.454 104.443 156.754 104.065 156.767 104.082C156.804 104.133 156.057 104.655 156.633 104.259C156.804 104.133 157.373 103.585 157.593 103.633L157.244 103.837C157.376 103.767 157.52 103.713 157.652 103.643C157.831 103.564 158.01 103.485 158.201 103.424C158.392 103.362 158.571 103.284 158.762 103.222C158.89 103.181 159.675 102.999 158.894 103.152C159.285 103.075 159.675 102.999 160.073 102.969C160.319 102.947 160.548 102.936 160.777 102.926C160.396 102.943 160.358 102.892 160.76 102.939C160.938 102.966 161.115 102.993 161.305 103.038C162.1 103.19 160.854 102.817 161.592 103.142C161.807 103.221 162.018 103.329 162.233 103.407C162.359 103.472 162.486 103.537 162.612 103.602C162.351 103.426 162.322 103.421 162.515 103.542C162.923 103.847 163.33 104.152 163.733 104.486C164.204 104.877 163.596 104.299 163.826 104.576C163.963 104.764 164.135 104.927 164.273 105.115C164.436 105.337 164.611 105.576 164.774 105.798C164.824 105.866 165.207 106.531 165.007 106.152C164.808 105.773 165.169 106.479 165.19 106.543C165.314 106.82 165.438 107.096 165.532 107.368C165.619 107.594 165.701 107.849 165.77 108.087C165.832 108.278 165.941 108.749 165.844 108.295C165.982 108.877 166.069 109.496 166.13 110.081C166.188 110.59 166.217 111.094 166.216 111.594C166.216 111.594 166.201 112.576 166.228 112.005C166.212 112.305 166.196 112.606 166.18 112.906C166.061 114.57 167.033 116.325 168.835 116.526C170.43 116.695 172.335 115.64 172.455 113.871L172.409 113.879Z" fill="#3E5C6D"/>
<path d="M135.721 151.792C144.01 141.432 149.872 129.412 154.658 117.104C156.818 111.529 158.674 104.679 154.119 99.7219C150.134 95.3979 142.962 96.3255 138.5 99.3359C135.104 101.616 138.861 106.739 142.257 104.458C143.844 103.399 145.925 102.871 147.822 103.238C149.72 103.605 150.419 105.167 150.599 106.952C150.825 109.229 149.996 111.465 149.203 113.569C148.257 116.075 147.24 118.555 146.197 121C142.122 130.553 137.23 139.709 130.723 147.843C128.173 151.026 133.154 154.988 135.708 151.775L135.721 151.792Z" fill="#3E5C6D"/>
<path d="M129.453 149.799C133.132 142.321 135.783 134.442 137.986 126.419C139.052 122.538 140.005 118.609 140.928 114.676C141.771 111.064 143.409 106.817 142.818 103.075C142.179 99.0532 138.59 96.3808 134.665 95.8987C131.184 95.4848 127.644 96.6373 124.869 98.7254C118.67 103.378 117.054 111.128 117.471 118.463C118.031 127.926 120.628 137.339 122.571 146.575C122.934 148.252 124.229 149.587 126.06 149.399C127.629 149.246 129.247 147.586 128.884 145.909C127.393 138.757 125.721 131.608 124.561 124.37C123.648 118.685 122.609 111.648 126.043 106.556C127.399 104.537 129.425 102.789 131.87 102.256C134.111 101.767 136.806 102.469 136.515 105.151C136.175 108.447 135.101 111.781 134.334 114.996C133.54 118.388 132.704 121.759 131.796 125.103C129.72 132.692 127.116 140.169 123.635 147.239C121.83 150.9 127.652 153.431 129.457 149.769L129.453 149.799Z" fill="#3E5C6D"/>
<path d="M125.99 101.972C123.436 97.9896 117.804 94.7153 112.977 95.3671C106.696 96.2194 102.86 103.234 102.583 108.979C102.245 116.001 105.641 122.098 108.935 128.058C112.633 134.746 115.803 141.717 118.471 148.898C119.895 152.738 125.836 150.455 124.407 146.645C122.283 140.956 119.852 135.386 117.093 129.978C114.529 124.979 111.239 120.171 109.603 114.754C108.334 110.59 108.433 104.924 112.506 102.278C115.316 100.453 119.326 103.341 120.85 105.742C123.062 109.188 128.172 105.413 125.972 101.985L125.99 101.972Z" fill="#3E5C6D"/>
<path d="M108.915 114.497C106.043 111.405 101.724 108.165 97.5709 107.194C91.8504 105.875 87.2838 112.324 87.9991 117.523C88.416 120.526 90.1284 123.183 92.1036 125.41C94.5513 128.21 97.2552 130.823 99.8565 133.51C105.578 139.449 111.283 145.401 117.005 151.34C118.207 152.585 119.913 153.12 121.445 152.022C122.691 151.108 123.317 148.811 122.128 147.583C117.792 143.068 113.44 138.567 109.092 134.036C104.991 129.77 100.58 125.653 96.7785 121.115C95.574 119.688 93.9813 117.731 94.3078 115.706C94.4614 114.805 94.9941 114.099 95.7113 113.573C96.3089 113.135 95.8581 113.308 96.2178 113.333C97.6522 113.463 99.4828 114.956 100.605 115.734C101.303 116.22 101.984 116.719 102.631 117.243C102.899 117.466 103.18 117.706 103.449 117.929C103.571 118.023 104.292 118.755 103.785 118.208C104.953 119.478 106.71 119.975 108.225 118.89C109.488 117.963 110.063 115.704 108.907 114.45L108.915 114.497Z" fill="#3E5C6D"/>
</g>
<defs>
<clipPath id="clip0_193_225">
<rect width="263.067" height="422.616" fill="white" transform="translate(239.773) rotate(53.74)"/>
</clipPath>
</defs>
</svg>
