<?xml version="1.0" encoding="UTF-8"?>
<svg id="Layer_2" data-name="Layer 2" xmlns="http://www.w3.org/2000/svg" viewBox="0 0 460.5 191.58">
  <defs>
    <style>
      .cls-1 {
        stroke-width: 3px;
      }

      .cls-1, .cls-2 {
        fill: none;
        stroke: #3e5c6d;
        stroke-miterlimit: 10;
      }

      .cls-3 {
        fill: #3e5c6d;
        stroke-width: 0px;
      }

      .cls-2 {
        stroke-width: 4px;
      }
    </style>
  </defs>
  <g id="Layer_1-2" data-name="Layer 1">
    <g>
      <path class="cls-2" d="M152.89,67.88s-11.26-22.67-14.17-24.42c-2.9-1.74-19.25-1.39-25.43-3.84,0,0-7.54,9.07-18.84,9.07s-18.84-9.07-18.84-9.07c-6.18,2.44-22.52,2.09-25.43,3.84-2.9,1.74-14.17,24.42-14.17,24.42,6.17,14.65,21.07,17.79,21.07,17.79l5.81-9.42-2.72,73.25c14.16,8.37,24.35,8.89,34.28,8.89s20.11-.52,34.28-8.89l-2.72-73.25,5.81,9.42s14.89-3.14,21.07-17.79Z"/>
      <path class="cls-3" d="M94.97,50.91c-2.86,0-5.77-.55-8.67-1.63-2.3-.86-4.59-2.06-6.8-3.56-3.75-2.54-6.02-5.09-6.11-5.2l3.46-2.82-1.73,1.41,1.73-1.41s2.06,2.3,5.38,4.53c2.94,1.98,7.54,4.33,12.75,4.33h.09c5.97-.03,11.68-3.12,16.95-9.19l3.48,2.79c-3.24,3.73-6.71,6.52-10.33,8.31-3.25,1.61-6.65,2.43-10.11,2.44-.03,0-.06,0-.09,0Z"/>
      <path class="cls-3" d="M59.58,81.66c-6.41-.56-11.93-3.77-16.39-9.56-2.6-3.37-4.17-6.79-4.91-8.64l-2.66,5.04c.94,1.83,2.2,3.95,3.83,6.08,2.53,3.31,5.46,5.96,8.68,7.88,2.79,1.66,5.8,2.76,8.99,3.28l2.47-4.08Z"/>
      <path class="cls-3" d="M129.47,81.79c6.41-.56,11.92-3.77,16.39-9.56,2.6-3.37,4.17-6.79,4.91-8.64l2.66,5.04c-.94,1.82-2.2,3.95-3.83,6.08-2.54,3.31-5.46,5.96-8.68,7.88-2.79,1.66-5.8,2.76-8.99,3.28l-2.46-4.08Z"/>
    </g>
    <g>
      <path class="cls-1" d="M183.95,120.19c10.83-35.82-2.66-73.6-27.38-95.02-14.31-12.4-29.72-17.03-38.68-18.94-.46-.1-.92-.21-1.38-.31-.54-.11-1.07-.23-1.61-.34.4.09.8.17,1.21.26,9.15,1.78,25.44,6.32,40.46,19.34,24.81,21.51,38.19,59.27,27.38,95.02-12.04,39.83-51.26,67.76-94.9,66.04,43.65,1.7,82.86-26.24,94.9-66.04Z"/>
      <line class="cls-1" x1="119.26" y1="15.26" x2="114.71" y2="4.96"/>
      <line class="cls-1" x1="124.9" y1="1.39" x2="114.44" y2="5.57"/>
    </g>
    <g>
      <path class="cls-1" d="M1.5,94.96C1.23,57.57,25.34,24.99,55.72,11.19c17.58-7.98,34.01-8.2,43.33-7.57.48.03.96.05,1.44.08.56.04,1.11.08,1.67.11-.42-.03-.84-.06-1.25-.09-9.47-.8-26.73-.91-45.19,7.46C25.22,25.04,1.23,57.64,1.5,94.96c.3,41.57,30.64,79.17,73.86,89.52C32.13,174.11,1.8,136.5,1.5,94.96Z"/>
      <line class="cls-1" x1="69.41" y1="175.46" x2="75.92" y2="184.65"/>
      <line class="cls-1" x1="66.63" y1="190.16" x2="76.06" y2="184"/>
    </g>
    <g>
      <path class="cls-1" d="M402.37,73.23c9.8.05,19.6.1,29.4.15-13.72,19.5-27.45,38.99-41.17,58.49-13.59.1-27.19.2-40.78.29-1.99-.82-5.65-2.69-8.79-6.74-1.28-1.66-6.68-8.7-4.9-17.81,1.46-7.49,6.95-11.23,7.63-11.67.94-.62,7.7-4.88,14.71-.92.5.28,6.7,3.93,7.9,11.98.07.45,1.52,11.2-5.45,15.66-4.1,2.63-9.69,2.16-13.35-1.54-2.54-2.57-5.16-7.72-3.27-12.59,1.41-3.65,5.16-6.66,8.99-5.84,3.05.66,6.13,3.75,6.06,7.3-.04,1.94-1.03,4.84-3.14,5.23-1.9.35-4.25-1.44-4.89-4.53"/>
      <path class="cls-1" d="M364.46,118.83c12.63-15.2,25.27-30.4,37.9-45.61.27-1.41.55-3.71,0-6.36-1.37-6.67-6.69-9.77-7.79-10.41-1.03-.6-6.02-3.51-11.14-1.33-1.04.44-1.85,1-2.38,1.41-12.96,13.54-25.92,27.09-38.88,40.63"/>
    </g>
    <path class="cls-1" d="M349.82,132.17h-33.81c-1.82-.38-5.52-1.46-8.78-4.91-4.71-4.97-6.52-12.75-4.91-19.65.55-2.37,2.34-8.2,7.63-11.67.94-.62,7.7-4.88,14.71-.92.5.28,6.7,3.93,7.9,11.98.07.46,1.52,11.2-5.45,15.66-4.1,2.63-9.69,2.16-13.35-1.54-2.54-2.57-5.16-7.72-3.27-12.59,1.41-3.65,5.16-6.66,8.99-5.84,3.05.66,6.13,3.75,6.06,7.3-.04,1.97-1.06,4.82-3.14,5.23-1.92.38-4.25-1.42-4.89-4.53"/>
    <path class="cls-1" d="M331.07,118.14l4.54-5.6c0-1.5.14-3.16.52-4.93,1.71-8.01,7.15-12.67,9.39-14.38,11.34-11.88,22.69-23.77,34.03-35.65-1.03-1.82-3.17-4.99-6.88-7.1-7.72-4.4-15.52-.4-16.61.19-16.47,16.06-32.94,32.11-49.41,48.17"/>
    <g>
      <path class="cls-1" d="M455.22,120.35c10.83-35.82-2.66-73.6-27.38-95.02-14.31-12.4-29.72-17.03-38.68-18.94-.46-.1-.92-.21-1.38-.31-.54-.11-1.07-.23-1.61-.34.4.09.8.17,1.21.26,9.15,1.78,25.44,6.32,40.46,19.34,24.81,21.51,38.19,59.27,27.38,95.02-12.04,39.83-51.26,67.76-94.9,66.04,43.65,1.7,82.86-26.24,94.9-66.04Z"/>
      <line class="cls-1" x1="390.53" y1="15.42" x2="385.98" y2="5.12"/>
      <line class="cls-1" x1="396.17" y1="1.55" x2="385.71" y2="5.73"/>
    </g>
    <g>
      <path class="cls-1" d="M272.78,95.12c-.27-37.39,23.84-69.97,54.22-83.76,17.58-7.98,34.01-8.2,43.33-7.57.48.03.96.05,1.44.08.56.04,1.11.08,1.67.11-.42-.03-.84-.06-1.25-.09-9.47-.8-26.73-.91-45.19,7.46-30.5,13.85-54.49,46.44-54.22,83.76.3,41.57,30.64,79.17,73.86,89.52-43.23-10.36-73.56-47.97-73.86-89.52Z"/>
      <line class="cls-1" x1="340.69" y1="175.62" x2="347.19" y2="184.81"/>
      <line class="cls-1" x1="337.9" y1="190.32" x2="347.33" y2="184.16"/>
    </g>
  </g>
</svg>