<svg width="103" height="113" viewBox="0 0 103 113" fill="none" xmlns="http://www.w3.org/2000/svg">
<g clip-path="url(#clip0_277_133)">
<path d="M8.29 9.90039C7.52 10.0004 5.61 10.3704 3.83 11.9104C1.78 13.6804 1.22 15.9004 1.07 16.6204C1.05 45.5904 1.03 74.5604 1 103.54C1.12 104.37 1.49 106.05 2.75 107.71C4.3 109.74 6.27 110.54 7.06 110.81C14.85 110.89 22.66 110.96 30.49 111.01C51.96 111.15 73.28 111.17 94.45 111.08C95.42 110.71 96.89 110.01 98.35 108.72C99.91 107.35 100.82 105.9 101.31 104.95C101.22 75.7804 101.13 46.6004 101.04 17.4304C100.65 16.4404 99.86 14.7804 98.28 13.1904C96.59 11.4904 94.79 10.6704 93.77 10.3004L8.28 9.91039L8.29 9.90039Z" fill="#FFEAF1" stroke="#3E5C6D" stroke-width="2" stroke-miterlimit="10"/>
<path d="M24.7109 1H24.7009C22.3593 1 20.4609 2.89831 20.4609 5.24V14.5C20.4609 16.8417 22.3593 18.74 24.7009 18.74H24.7109C27.0526 18.74 28.9509 16.8417 28.9509 14.5V5.24C28.9509 2.89831 27.0526 1 24.7109 1Z" fill="#FFEAF1" stroke="#3E5C6D" stroke-width="2" stroke-miterlimit="10"/>
<path d="M77.0391 1.01953H77.0291C74.6874 1.01953 72.7891 2.91784 72.7891 5.25953V14.5195C72.7891 16.8612 74.6874 18.7595 77.0291 18.7595H77.0391C79.3807 18.7595 81.2791 16.8612 81.2791 14.5195V5.25953C81.2791 2.91784 79.3807 1.01953 77.0391 1.01953Z" fill="#FFEAF1" stroke="#3E5C6D" stroke-width="2" stroke-miterlimit="10"/>
<path d="M51.1602 1H51.1502C48.8085 1 46.9102 2.89831 46.9102 5.24V14.5C46.9102 16.8417 48.8085 18.74 51.1502 18.74H51.1602C53.5018 18.74 55.4002 16.8417 55.4002 14.5V5.24C55.4002 2.89831 53.5018 1 51.1602 1Z" fill="#FFEAF1" stroke="#3E5C6D" stroke-width="2" stroke-miterlimit="10"/>
<path d="M29.4596 43.7803H21.9096C19.115 43.7803 16.8496 46.0457 16.8496 48.8403V59.2503C16.8496 62.0448 19.115 64.3103 21.9096 64.3103H29.4596C32.2542 64.3103 34.5196 62.0448 34.5196 59.2503V48.8403C34.5196 46.0457 32.2542 43.7803 29.4596 43.7803Z" fill="#FFEAF1" stroke="#3E5C6D" stroke-width="2" stroke-miterlimit="10"/>
<path d="M80.3991 72.1699H72.8491C70.0545 72.1699 67.7891 74.4354 67.7891 77.2299V87.6399C67.7891 90.4345 70.0545 92.6999 72.8491 92.6999H80.3991C83.1936 92.6999 85.4591 90.4345 85.4591 87.6399V77.2299C85.4591 74.4354 83.1936 72.1699 80.3991 72.1699Z" fill="#FFEAF1" stroke="#3E5C6D" stroke-width="2" stroke-miterlimit="10"/>
<path d="M80.3991 43.7803H72.8491C70.0545 43.7803 67.7891 46.0457 67.7891 48.8403V59.2503C67.7891 62.0448 70.0545 64.3103 72.8491 64.3103H80.3991C83.1936 64.3103 85.4591 62.0448 85.4591 59.2503V48.8403C85.4591 46.0457 83.1936 43.7803 80.3991 43.7803Z" fill="#FFEAF1" stroke="#3E5C6D" stroke-width="2" stroke-miterlimit="10"/>
<path d="M54.7897 43.7803H47.2397C44.4451 43.7803 42.1797 46.0457 42.1797 48.8403V59.2503C42.1797 62.0448 44.4451 64.3103 47.2397 64.3103H54.7897C57.5842 64.3103 59.8497 62.0448 59.8497 59.2503V48.8403C59.8497 46.0457 57.5842 43.7803 54.7897 43.7803Z" fill="#FFEAF1" stroke="#3E5C6D" stroke-width="2" stroke-miterlimit="10"/>
<path d="M54.5202 72.1699H46.9702C44.1756 72.1699 41.9102 74.4354 41.9102 77.2299V87.6399C41.9102 90.4345 44.1756 92.6999 46.9702 92.6999H54.5202C57.3147 92.6999 59.5802 90.4345 59.5802 87.6399V77.2299C59.5802 74.4354 57.3147 72.1699 54.5202 72.1699Z" fill="#FFEAF1" stroke="#3E5C6D" stroke-width="2" stroke-miterlimit="10"/>
<path d="M29.4596 72.1699H21.9096C19.115 72.1699 16.8496 74.4354 16.8496 77.2299V87.6399C16.8496 90.4345 19.115 92.6999 21.9096 92.6999H29.4596C32.2542 92.6999 34.5196 90.4345 34.5196 87.6399V77.2299C34.5196 74.4354 32.2542 72.1699 29.4596 72.1699Z" fill="#FFEAF1" stroke="#3E5C6D" stroke-width="2" stroke-miterlimit="10"/>
<path d="M1 26.5L101.07 27" stroke="#3E5C6D" stroke-width="2" stroke-miterlimit="10"/>
</g>
<defs>
<clipPath id="clip0_277_133">
<rect width="102.31" height="112.13" fill="white"/>
</clipPath>
</defs>
</svg>
